<?xml version="1.0" encoding="utf-8"?>
<!-- Generator: Adobe Illustrator 24.0.1, SVG Export Plug-In . SVG Version: 6.00 Build 0)  -->
<svg version="1.1" id="Layer_1" xmlns="http://www.w3.org/2000/svg" xmlns:xlink="http://www.w3.org/1999/xlink" x="0px" y="0px"
	 viewBox="0 0 206 40" style="enable-background:new 0 0 206 40;" xml:space="preserve">
<style type="text/css">
	.st0{fill:#243B7F;}
	.st1{fill:#0565AE;}
	.st2{fill:#39485D;}
	.st3{fill:#D6EEF8;}
	.st4{fill:#E2F3F7;}
	.st5{fill:#C1DFF9;}
	.st6{fill:#3F507F;}
	.st7{fill:#2D79BE;}
	.st8{fill:#1D6CB2;}
	.st9{fill:#9CC8EB;}
	.st10{fill:#E4E8EB;}
	.st11{fill:#F39D1F;}
	.st12{fill:#DE1F25;}
	.st13{fill:#066FCD;}
	.st14{fill:#ED6420;}
</style>
<g>
	<g>
		<path class="st0" d="M45.27,34.51c-0.14,0.16-0.28,0.32-0.42,0.48c-0.99,0.27-1.85,0.87-2.97,0.87
			c-11.83-0.03-23.66-0.02-35.5-0.01c-1.55,0-2.86-0.44-3.77-1.77c0.42-1.28-0.35-2.45-0.34-3.72c0.06-7.45,0.02-14.89,0.01-22.34
			c0.55-0.35,0.11-0.78,0.1-1.18C2.36,6.76,2.33,6.68,2.3,6.6c0.17-0.15,0.34-0.29,0.51-0.44c0.08,0.17,0.01,0.56,0.3,0.45
			C3.55,6.45,3.38,6.03,3.3,5.69c0.02,0.03,0.04,0.05,0.06,0.08C3.34,5.75,3.32,5.72,3.3,5.7c0.4,0.12,0.84,0.19,1.19-0.04
			c1.18-0.8,2.51-0.67,3.82-0.67c6.13,0,12.26-0.13,18.39,0.04c6.07,0.17,12.2-0.84,18.2,0.77c0.82,1.03,1.36,2.15,1.36,3.52
			c0,7.57,0.04,15.15,0.06,22.72c-0.03,0.16-0.06,0.33-0.09,0.49C45.7,33.09,45.55,33.83,45.27,34.51z M24.72,20.24
			c0.07-0.08,0.14-0.17,0.22-0.25c0.36,0.11,0.72,0.22,1.08,0.32c-0.07,0.58-0.14,1.15-0.2,1.73c-0.05,0.47,0.07,0.82,0.65,0.74
			c0.4-0.05,0.95,0.23,1.04-0.5c0.05-0.4,0.17-0.78,0.25-1.18c0.31-0.02,0.49-0.2,0.54-0.5c0.27-0.01,0.54-0.01,0.81-0.02
			c0.12,0.45,0.36,0.61,0.77,0.29c0.64-0.48,0.67-0.34,0.76,0.44c0.12,1.03,0.71,1.91,2.04,1.64c1.15-0.09,2.62,0.21,3.37-0.38
			c0.8-0.63,0.58-2.18,0.76-3.34c0.01-0.09,0.03-0.18,0.05-0.27c0.1-0.57-0.27-0.85-0.69-0.7c-0.93,0.33-1.78-0.15-2.67-0.11
			c-0.89-0.24-1.57-0.62-1.85-1.64c-0.17-0.6-0.83-0.84-1.55-0.88c-1.02-0.06-2.11-0.09-3.03-0.48c-0.86-0.37-0.9-0.12-0.97,0.57
			c-0.11,1.13-0.73,1.85-1.85,2.13c-1.03,0.26-1.24,1.01-1.14,1.94c-0.05,0.22-0.08,0.51-0.34,0.53c-0.56,0.06-0.47-0.44-0.55-0.75
			c-0.21-0.79-0.5-1.63-1.51-1.23c-1,0.4-0.15,1.16,0,1.65c0.38,1.27,0.95,2.45-0.16,3.67c-0.42,0.46-0.11,0.72,0.45,0.73
			c0.54,0.01,0.94-0.15,1.26-0.63c0.6-0.91,1.26-1.77,1.89-2.66C24.74,21.07,24.73,20.65,24.72,20.24z M11.33,16.05
			c-0.63,0.22-1.76-0.55-1.98,0.87c-0.26,1.66-0.53,3.32-0.78,4.98c-0.06,0.4-0.12,0.85,0.5,0.9c0.52,0.04,1.17,0.05,1.15-0.61
			c-0.06-1.56,0.89-1.61,2.05-1.75c1.38-0.16,2.26-1.52,2.06-2.91c-0.21-1.39-1.28-1.47-2.37-1.5
			C11.78,16.05,11.6,16.05,11.33,16.05z M13.98,20.91c0.01,1.45,1.02,2.26,2.43,1.93c0.26-0.06,0.57-0.33,0.75-0.26
			c2.16,0.91,1.98-0.76,2.2-1.98c0.1-0.53,0.16-1.08,0.23-1.61c0.05-0.35,0-0.72-0.43-0.65c-1,0.16-1.98-0.22-2.96-0.12
			C14.96,18.35,13.97,19.61,13.98,20.91z M39.5,16.88c0.07-0.42,0.16-0.84-0.5-0.85c-0.54,0-0.95,0.06-1.05,0.75
			c-0.23,1.66-0.54,3.31-0.78,4.96c-0.06,0.39-0.35,0.95,0.41,1.04c0.63,0.08,1.06-0.13,1.16-0.81
			C38.99,20.29,39.25,18.58,39.5,16.88z"/>
		<path class="st1" d="M98.53,33.95c-0.43,0.29-0.92,0.52-1.1,1.07c-1.06,0.37-2.06,0.85-3.25,0.84
			c-11.68-0.04-23.35-0.03-35.03-0.03c-1.66,0-3.13-0.38-4.1-1.87c-0.06-0.12-0.12-0.24-0.18-0.37c-0.13-0.34-0.26-0.67-0.39-1.01
			c-0.01-8.29-0.02-16.57-0.03-24.86c0.34-0.62,0.69-1.24,1.03-1.86c0.07,0.01,0.12-0.02,0.16-0.08c0.22-0.1,0.44-0.21,0.66-0.31
			c2.67-0.67,5.4-0.48,8.11-0.48c3-0.01,6.01,0,9.01,0c7.51-0.01,15.02-0.03,22.52-0.05l0.07-0.04l0.07,0.04
			c0.07,0.37,0.14,0.71,0.57,0.25C97,5.4,97.35,5.61,97.69,5.82c0.02,0.06,0.07,0.09,0.13,0.09c0.81,1.22,1.02,2.56,1,4.01
			c-0.06,4.14-0.03,8.28-0.01,12.42c0.01,2.68,0.06,5.36,0.1,8.04c-0.01,0.64-0.03,1.28-0.04,1.92
			C98.67,32.84,98.35,33.35,98.53,33.95z M88.73,25.15c0.9,0.91,1.42,0.85,2.13-0.24c-0.52-2.43-1.03-4.86-1.57-7.28
			c-0.14-0.62-0.06-1.44-1.08-1.42c-0.99,0.02-1.99-0.13-2.44,1.15c-0.42,1.19-0.98,2.33-1.47,3.49c-0.05,0.12-0.1,0.24-0.15,0.35
			l0,0.02c-1.74-0.04-1.84-2.44-3.67-2.36c0.7-0.38,1.23,0.04,1.81,0.08c0.74,0.05,1.35-0.46,1.27-0.93c-0.11-0.74,0.63-2-0.35-2.17
			c-1.53-0.27-3.2-0.64-4.73,0.25c-0.67,0.39-1.22,1.05-1.96-0.14c-0.33-0.53-1.44-0.69-2.05,0.2c-0.66,0.07-0.69,0.57-0.77,1.08
			c-0.31,2.01-0.65,4.01-0.99,6.02c-0.34,2.01-0.27,2.09,1.78,1.84c0.13-0.02,0.25-0.1,0.37-0.15c0.37-0.05,0.78-0.44,1.11,0.05
			c0.5,0.77,1.27,0.74,2.05,0.77c1.11,0.05,2.17-0.14,3.2-0.5c0.52-0.18,1.04-0.3,1.58-0.1l0.08-0.02l0.06,0.06
			c0.74,0.78,2.4,0.75,3.26-0.12c0.6-0.62,1.14-0.83,1.81-0.15c0.2,0.2,0.45,0.29,0.74,0.25L88.73,25.15z M65.02,17.85
			c0.54,2.1,1.09,4.21,1.63,6.31c0.14,0.53,0.24,1.08,1.01,0.99c0.72-0.09,1.58,0.29,1.98-0.71c1.02-2.52,2.06-5.03,3.11-7.54
			c0.11-0.27,0.25-0.47-0.11-0.66c-0.83-0.42-2.21,0.12-2.53,1.01c-0.51,1.45-1.02,2.91-1.54,4.36c-0.21-0.2-0.16,0.03-0.2,0.12
			c-0.49-0.6-0.3-1.43-0.69-2.05c-0.07-3.57-1.51-4.51-4.81-3.15C64,16.91,64,16.91,65.02,17.85z"/>
		<path class="st2" d="M149.96,34.83c-0.07,0.23-0.22,0.33-0.46,0.3c-0.71-0.33-1.07,0.2-1.49,0.59c-0.45,0.05-0.9,0.13-1.34,0.13
			c-11.68,0.01-23.37,0.01-35.05,0c-0.45,0-0.91,0.09-1.33-0.19c-1.1-0.58-1.76-1.73-2.91-2.25c-0.14-0.45-0.27-0.91-0.41-1.36
			c0.01-8.02,0.02-16.04,0.04-24.05c0.46-1.6,1.5-2.67,3-3.34c0.72-0.04,1.45-0.11,2.17-0.11c10.45-0.01,20.89,0,31.34,0
			c1.32,0,2.63-0.04,3.95-0.07c0.17,0.03,0.34,0.07,0.51,0.1c0,0,0.08,0.05,0.08,0.05l0.09-0.02c0,0,0.05,0.06,0.05,0.06
			c1.52,0.56,2.67,1.49,3.1,3.13c-0.36,0.53-0.26,1.14-0.26,1.72c0,6.94,0,13.89,0,20.83C151.04,31.93,150.9,33.48,149.96,34.83z
			 M129.47,27.19c2.53,1.55,5.19,2.12,8.04,0.99c3.29-1.3,5.24-3.73,5.51-7.27c0.28-3.64-1.26-6.51-4.46-8.21
			c-3.08-1.64-6.21-1.35-9.1,0.69c-0.29-0.14-0.58-0.26-0.85-0.42c-3.48-2.04-6.89-1.8-9.99,0.66c-3.79,3-4.19,8.05-1.53,11.6
			c2.34,3.12,5.71,4.3,9.7,3.1C127.73,28.05,128.45,27.29,129.47,27.19z"/>
		<path class="st3" d="M159.28,16.98c-0.98-0.24-0.64-0.99-0.47-1.51c0.63-1.98-0.09-3.99,0.24-5.96c0.17-0.97-0.31-2.13,0.77-2.86
			c0.06,0.09,0.11,0.18,0.17,0.27c-0.11,0.54-0.21,1.08-0.32,1.62c-0.25,0.37-0.25,0.74,0,1.11c0,1-0.01,2-0.01,2.99
			c-0.23,0.29-0.17,0.56,0.03,0.83c-0.03,0.33-0.05,0.65-0.08,0.98c-0.05,0.21-0.15,0.48,0.18,0.5c0.2,0.01,0.23-0.22,0.23-0.4
			c0.27-0.73,0.54-1.45,0.81-2.18c0.05-0.06,0.07-0.13,0.07-0.21c1.27,0.16,2.68-0.78,3.8,0.52c0.09,0.11,0.23,0.1,0.27-0.09
			c0.16-0.89,0.86-0.49,1.31-0.49c3.4-0.04,6.81-0.02,10.22-0.04c3.18-0.01,6.36-0.05,9.54-0.07c0.17,0.04,0.33,0.08,0.5,0.12
			c3.55-0.14,7.11,0.17,10.66-0.14c0.11,0.01,0.21,0.02,0.32,0.03c0.16,0.09,0.33,0.19,0.49,0.28c-0.02,0.18,0.01,0.46,0.18,0.43
			c0.29-0.04,0.18-0.33,0.18-0.54c0.17-0.06,0.34-0.11,0.51-0.17c1.02,0.08,2.03,0.19,3.04-0.06c0.04,0.06,0.1,0.1,0.17,0.12
			c-0.28,0.51-0.14,1.06-0.15,1.6c-0.04,2.03-0.05,4.06-0.07,6.08c-0.09,0.03-0.17,0.06-0.26,0.09c-0.82,0-1.64-0.01-2.46-0.01
			c-0.46-0.13-0.93-0.27-1.39-0.01c-1.46,0.01-2.91,0.03-4.37,0.04c-1.25-1.47-1.25-1.47-1.9-0.09c-1.58,0.04-3.15,0.03-4.72-0.17
			c-0.25,0.08-0.49,0.17-0.74,0.25c-1.27,0-2.54,0-3.82,0c-0.28-0.02-0.55-0.05-0.83-0.07c-0.09,0.01-0.19,0.01-0.28,0.02
			c-1.46,0.02-2.92,0.04-4.38,0.07c-1.54-0.01-3.09-0.01-4.63-0.02c-0.27,0-0.54,0-0.81,0c-2.01,0-4.01,0-6.02,0.01
			c-0.09,0-0.18-0.01-0.27-0.01c-0.18,0.01-0.36,0.01-0.54,0.02c-0.16-0.08-0.24,0.02-0.3,0.14c-0.07,0-0.14,0-0.22,0.01
			c-0.09-0.3-0.45-0.34-0.56-0.68c-0.32-1.05-0.85-0.7-1.38-0.14c-0.1,0.18-0.21,0.36-0.31,0.54c-0.65,0.34-1.84-0.63-2.02,0.84
			c-0.03,0.03-0.08,0.07-0.07,0.09c0.01,0.07,0.05,0.14,0.08,0.21c0,0.17,0,0.35,0.01,0.52c-0.29,2.65-0.3,5.29,0.01,7.94
			c0.1,1.62-0.11,3.27,0.44,4.85l-0.09,0.08c-1.18-1.12-0.97-2.66-0.93-4c0.1-3.12,0.22-6.22-0.04-9.33
			c-0.06-0.74-0.38-1.58,0.23-2.28c0.17-0.07,0.33-0.15,0.5-0.23c0.63,0.1,1.18,0.17,1.62-0.55c0.4-0.67,2.29-0.79,2.62-0.18
			c0.36,0.68,0.85,1.09,1.44,0.68c0.55-0.38-0.17-0.93-0.26-1.42c-0.01-0.08-0.11-0.14-0.16-0.2c-0.35-0.87-0.71-1.74-1.04-2.63
			c-0.19-0.5-0.42-0.85-1.04-0.84c-0.58,0.01-1.04,0.07-1.28,0.71c-0.34,0.92-0.74,1.81-1.11,2.72c-0.18,0.29-0.35,0.57-0.53,0.86
			c-0.52-0.44-0.15-1.08-0.4-1.68C159.31,16.22,159.25,16.59,159.28,16.98z M169.39,16.51c-0.56-0.81-0.7-1.58-0.79-2.31
			c-0.14-1.21-0.99-0.95-1.72-0.96c-0.95-0.01-0.77,0.71-0.78,1.27c-0.01,1.05,0.02,2.09,0.01,3.14c0,0.44,0,0.84,0.58,0.87
			c0.67,0.03,0.7-0.4,0.69-0.9c-0.02-0.93,0-1.86,0-2.79c0.54,0.86,0.83,1.75,1.08,2.65c0.13,0.48,0.13,1,0.87,0.97
			c0.7-0.03,0.71-0.55,0.89-1.01c0.34-0.86,0.37-1.85,1.07-2.92c0,1.22,0,2.13,0,3.04c0,0.42-0.05,0.86,0.56,0.88
			c0.66,0.03,0.72-0.42,0.71-0.91c0-0.96,0.03-1.91-0.02-2.87c-0.03-0.56,0.34-1.37-0.73-1.43c-0.84-0.04-1.66-0.12-1.81,1.08
			C169.92,15.01,169.63,15.67,169.39,16.51z M196.91,15.67c0.1-0.03,0.2-0.06,0.3-0.09c0.54,0.82,1.09,1.63,1.61,2.46
			c0.3,0.47,0.72,0.46,1.19,0.43c0.43-0.02,0.54-0.26,0.54-0.61c0.01-1.32,0.01-2.64,0.01-3.95c0-0.35-0.13-0.62-0.54-0.64
			c-0.47-0.02-0.65,0.24-0.64,0.67c0,0.7,0,1.39,0,2.09c-0.82-0.72-1.32-1.5-1.83-2.28c-0.36-0.55-0.92-0.56-1.46-0.44
			c-0.53,0.12-0.46,0.61-0.47,1.01c0,1.14,0.04,2.27,0.02,3.41c-0.01,0.5,0.1,0.79,0.65,0.79c0.59,0,0.64-0.37,0.63-0.82
			C196.9,17.02,196.91,16.34,196.91,15.67z M178.64,15.83c0,0.5-0.03,1,0.01,1.49c0.03,0.44-0.26,1.05,0.57,1.13
			c0.82,0.08,0.7-0.49,0.74-0.97c0.02-0.26-0.07-0.59,0.23-0.72c0.37-0.16,0.58,0.16,0.78,0.38c0.34,0.36,0.62,0.79,0.99,1.11
			c0.35,0.31,0.91,0.47,1.24,0.12c0.35-0.37-0.28-0.55-0.41-0.85c-0.17-0.4-1.04-0.71-0.18-1.28c0.77-0.51,0.81-1.25,0.54-2.05
			c-0.27-0.8-1-0.86-1.66-0.94C178.67,12.91,178.63,12.96,178.64,15.83z M173.54,15.92c0,2.61,0,2.61,2.55,2.56
			c0.18,0,0.37,0.02,0.55-0.01c0.4-0.07,1.04,0.24,1.08-0.45c0.04-0.75-0.62-0.55-1.09-0.66c-0.59-0.14-1.69,0.49-1.67-0.46
			c0.01-0.86,1.11-0.34,1.72-0.43c0.46-0.07,1,0.01,0.99-0.63c-0.01-0.62-0.59-0.38-0.94-0.48c-0.62-0.18-1.78,0.53-1.78-0.49
			c0-0.93,1.18-0.38,1.83-0.52c0.37-0.08,0.91,0.12,0.93-0.51c0.02-0.59-0.46-0.57-0.88-0.58c-0.23-0.01-0.46,0-0.68,0
			C173.54,13.26,173.54,13.26,173.54,15.92z M192.24,13.26c-0.62-0.11-0.9,0.27-1.11,0.77c-0.5,1.17-1.02,2.33-1.5,3.51
			c-0.12,0.28-0.62,0.65-0.09,0.91c0.36,0.18,0.81,0.23,1.17-0.29c0.77-1.12,2.25-1.15,3.02-0.09c0.3,0.41,0.7,0.51,1.06,0.4
			c0.61-0.2,0.26-0.7,0.13-1.03c-0.47-1.18-1-2.34-1.49-3.51C193.2,13.38,192.82,13.16,192.24,13.26z M188.98,13.24
			c-1.13-0.04-2.02,0.22-2.6,1.23c-0.86,1.49,0,3.78,1.51,3.94c0.47,0.05,0.8-0.07,0.95-0.54c0.12-0.36-0.1-0.5-0.39-0.56
			c-1-0.18-1.17-0.89-1.07-1.73c0.12-1.01,0.89-1.18,1.69-1.19c0.47-0.01,0.98,0.12,0.97-0.56
			C190.02,13.01,189.34,13.33,188.98,13.24z M184.03,15.79C184.03,15.79,184.03,15.79,184.03,15.79c0.01,0.68,0,1.35,0.01,2.03
			c0.01,0.35,0.14,0.62,0.54,0.63c0.43,0.01,0.68-0.2,0.68-0.64c0-1.31,0-2.62,0-3.93c0-0.36-0.14-0.6-0.55-0.61
			c-0.45-0.01-0.68,0.18-0.68,0.63C184.02,14.53,184.03,15.16,184.03,15.79z"/>
		<path class="st4" d="M160.87,5.47c0.61-1.84,1.55-2.28,4.08-1.77c0.73,0.15,1.43,0.2,2.16,0.2c9.28,0,18.57,0.02,27.85-0.01
			c2.63-0.01,5.26,0.1,7.89,0.27c1,0.06,1.25,0.77,1.46,1.49c0.22,0.78,0.32,1.59,0.31,2.42c-0.04,1.96,0.1,3.92-0.04,5.87
			c-0.23,3.2,0.73,6.47-0.53,9.62c-0.25,0.04-0.51,0.07-0.76,0.11c-0.3,0-0.6,0-0.9,0c-0.34-0.16-0.67-0.15-1.01,0
			c-1.41,0.08-2.07,0.79-1.88,2.22c0.07,0.14,0.15,0.27,0.22,0.41l0-0.01c0.04,0.59,0.44,0.58,0.87,0.52
			c0.25,0.02,0.5,0.04,0.75,0.05c0.08,0.14,0.17,0.14,0.27,0.02c0.18,0,0.36,0,0.54,0c0.1,0.27,0.2,0.54,0.3,0.8
			c0,0-0.02,0.01-0.02,0.01c-1.1-0.01-2.2-0.01-3.3-0.02c-0.01-0.32-0.03-0.65-0.04-0.97c-0.07-0.13-0.13-0.27-0.2-0.4
			c-0.2-0.15-0.4-0.3-0.59-0.46c-0.47-0.76-1.45,0-2.06-0.68c0.69-0.44,1.48,0.02,2.07-0.41c0.26-0.19,0.56-0.38,0.48-0.75
			c-0.09-0.43-0.47-0.33-0.78-0.33c-0.72,0.02-1.45-0.01-2.17,0.09c-0.89,0.13-1.33,0.73-1.3,1.62c0.03,0.87,0.6,1.28,1.39,1.4
			c0.44,0.07,0.93-0.07,1.35,0.05c0.62,0.18,0.9,0.52,0.06,0.87c-0.67-0.04-1.35-0.2-2,0.09c-0.3,0.03-0.57,0.11-0.75,0.38
			c-0.19,0.01-0.39,0.01-0.58,0.02c-0.63-0.83-1.52-0.25-2.27-0.43c-0.32-0.08-0.66-0.12-0.61-0.55c0.04-0.33,0.31-0.4,0.6-0.4
			c0.5,0,1,0,1.5-0.01c0.35,0,0.63-0.12,0.64-0.53c0-0.39-0.23-0.56-0.61-0.57c-0.45,0-0.91,0-1.36-0.01
			c-0.36-0.01-0.78,0.01-0.75-0.53c0.03-0.45,0.42-0.36,0.73-0.42c0.66-0.13,1.45,0.37,1.98-0.39c0-0.09,0.01-0.19,0.01-0.28
			c0.03-0.16,0-0.25-0.19-0.21c-0.09-0.02-0.18-0.04-0.27-0.06c-1.22-0.11-2.45-0.5-3.61,0.27c-0.01,0.09-0.02,0.18-0.03,0.27
			c-0.17,1.29-0.17,2.58,0.04,3.86c0.3,0.99,1.09,0.45,1.68,0.52c0.81,0.2,1.62,0.19,2.42-0.01c0.29-0.12,0.57-0.12,0.85,0.02
			c0.19,0.04,0.37,0.08,0.56,0.11c0.18,0.19,0.35,0.19,0.53,0c1.02-0.17,2.17,0.23,3.04-0.64c0.4-0.02,0.51,0.39,0.8,0.53
			c1.24,0.13,2.47,0.14,3.7-0.06c0.22,0.02,0.44,0.04,0.66,0.06c-0.01,0.18-0.01,0.36-0.01,0.54c-0.36,0.17-0.72,0.34-1.08,0.5
			c-5.28,0.02-10.55,0.03-15.83,0.05c-0.1-0.14-0.21-0.29-0.31-0.43c-0.16-0.43-0.3-0.25-0.54-0.02c-1.02,0.93-2.73,0.58-3.17-0.63
			c-0.04-0.11-0.08-0.22-0.11-0.33c-0.52-0.42-1.08-0.33-1.58-0.01c-0.36,0.23-0.34,0.59,0.01,0.88c-0.01,0.19-0.03,0.37-0.04,0.56
			c-1.74-0.12-3.5,0.3-5.22-0.28l0,0c-0.11-0.32-0.29-0.38-0.55-0.15c-0.03,0.06-0.08,0.1-0.14,0.13c-0.05,0.08-0.09,0.16-0.14,0.24
			c-0.04,0.06-0.1,0.09-0.18,0.09c-2.58-0.01-5.17-0.02-7.75-0.03c-0.08-0.02-0.16-0.04-0.24-0.04c-0.01-2.26-0.02-4.52-0.03-6.78
			c0.02-0.1,0.03-0.21,0.05-0.31c0.32-0.33,0.73-0.3,1.13-0.3c2.25,0.02,4.5,0.03,6.75,0.04c0.08,0.05,0.16,0.08,0.25,0.08
			c0.08,0.27,0.31,0.66,0.5,0.56c1.46-0.82,3.02-0.3,4.52-0.48c2.99-0.36,5.97-0.16,8.96-0.16c0.28,0.31,0.65,0.26,1.01,0.26
			c3.7,0,7.4,0,11.1,0c0.36,0,0.73,0.05,1.01-0.26c0.55-0.35,1.6,0.52,1.8-0.72c0.12-0.24,0.13-0.47-0.07-0.68l-0.09,0.02
			c0.03-0.18,0.06-0.35,0.09-0.53c0.3-1.83,0.3-3.67,0-5.5c0-0.35,0-0.7,0-1.06c0.2-0.2,0.2-0.39,0-0.59c0-1.63,0-3.25,0-4.88
			c0.23-0.4,0.32-0.78-0.16-1.07c-0.04-0.06-0.06-0.13-0.06-0.21c0.06-0.17,0-0.29-0.15-0.37c-0.04-0.05-0.07-0.11-0.09-0.18
			c0.1-0.39-0.07-0.59-0.45-0.65c-0.17-0.23-0.37-0.39-0.67-0.4c0,0-0.02-0.03-0.02-0.03c-0.04-0.13-0.08-0.27-0.12-0.4
			c-0.46-0.85-1.26-0.73-2.02-0.7c-0.59-0.01-1.18-0.04-1.77-0.04c-11.1-0.01-22.21-0.01-33.31-0.01c-1.23-0.05-2.5-0.45-3.57,0.55
			c-0.1,0.08-0.21,0.16-0.31,0.23c-0.04,0.07-0.06,0.14-0.06,0.22c-0.15,0.06-0.3,0.12-0.44,0.17
			C160.93,5.62,160.91,5.54,160.87,5.47z M176.48,24.16L176.48,24.16c-0.24,0.07-0.32,0.25-0.33,0.48
			c-0.08,0.26-0.23,0.41-0.52,0.35c-0.1-0.11-0.21-0.22-0.31-0.32c-0.27-0.3-0.54-0.6-0.81-0.89c-0.18-0.21-0.4-0.21-0.64-0.14
			c-0.2,0.01-0.4,0.03-0.6,0.04c-0.28,0.01-0.56,0.01-0.85,0.02c-1.31,0.05-2.61,0.11-3.92,0.16c-0.45,0.52-0.36,1.07-0.08,1.62
			c0,0.19,0,0.37,0,0.56c-0.28,0.36-0.28,0.72,0,1.08c0,0.18,0,0.37-0.01,0.55c-0.21,0.18-0.21,0.36,0,0.54
			c0.07,0.35,0.28,0.57,0.63,0.65c0.18,0.2,0.36,0.2,0.54,0c0.18,0,0.37,0,0.55,0c0.09,0,0.18,0,0.27,0.01
			c0.73-0.03,1.46-0.07,2.19-0.1c0.16,0.27,0.34,0.27,0.54,0.05c0.19,0.02,0.37,0.04,0.56,0.06c0.09,0,0.18,0,0.27,0
			c0.19-0.03,0.39-0.07,0.58-0.1c0.08-0.07,0.17-0.13,0.25-0.2c0.08-0.12,0.16-0.24,0.24-0.36c0.28-0.19,0.57-0.39,0.85-0.58
			c0.09,0.1,0.17,0.21,0.26,0.31c0,0.25,0.09,0.45,0.36,0.52c0.53,0.45,1.1,0.5,1.75,0.16c-0.35-0.94-1.54-1.39-1.53-2.35
			c0.01-1.01,1.17-1.51,1.57-2.4c-0.11-0.07-0.22-0.15-0.33-0.22c-0.41,0.07-0.83,0.14-1.24,0.21
			C176.65,23.96,176.56,24.06,176.48,24.16z M181.64,27.1c0.48,0.03,1,0.16,1.21-0.48c0.66-0.82,0.58-2.23-0.16-2.69
			c-0.48-0.3-3.64-0.22-3.81,0.11c-0.07,0.15-0.06,0.35-0.06,0.53c0.02,1.31,0.06,2.62,0.08,3.93c-0.01,0.19,0.09,0.26,0.26,0.25
			c0.18,0,0.37,0,0.55-0.01c0.34-0.04,0.37-0.25,0.28-0.52C179.94,26.96,180.88,27.17,181.64,27.1z M184.14,26.26
			c0,0.5-0.03,1,0.01,1.5c0.03,0.4-0.19,0.98,0.52,1.05c0.72,0.07,0.81-0.38,0.79-0.95c-0.01-0.25-0.07-0.59,0.26-0.7
			c0.39-0.13,0.53,0.25,0.76,0.45c0.43,0.39,0.58,1.07,1.25,1.18c0.34,0.05,0.77,0.27,1.01-0.1c0.23-0.35-0.22-0.53-0.4-0.77
			c-0.3-0.4-1.01-0.74-0.2-1.28c0.75-0.49,0.78-1.19,0.57-1.92c-0.24-0.84-0.95-1-1.72-1.05C184.16,23.48,184.16,23.48,184.14,26.26
			z"/>
		<path class="st4" d="M46.32,32.04c-0.03-7.57-0.06-15.15-0.06-22.72c0-1.37-0.54-2.49-1.36-3.52c-0.79-0.91-1.81-1.21-2.99-1.21
			C30.1,4.6,18.29,4.59,6.48,4.59c-0.68,0-1.36,0.01-2,0.32C4.52,4.85,4.53,4.79,4.5,4.73c0.08-0.61,0.4-0.93,1.03-0.72
			c0.72,0.25,1.44,0.15,2.16,0.15c11.15,0.01,22.3-0.02,33.45,0.05c0.97,0.01,1.87-0.76,3.01,0.12c1.56,1.22,2.72,2.48,2.72,4.53
			c0.01,7.23,0.01,14.47-0.01,21.7C46.86,31.09,47.2,31.82,46.32,32.04z"/>
		<path class="st3" d="M204.33,32.86c-0.08,2.51-0.83,3.25-3.62,3.54c-0.32,0.03-0.64,0.01-0.95,0.01c-12.46,0-24.93,0-37.39,0
			c-1.89,0-2.25-0.34-2.34-2.17c0,0,0.09-0.08,0.09-0.08c0.23,0.04,0.46,0.09,0.69,0.13l-0.01-0.01c0.76,1.17,1.91,1.56,3.23,1.56
			c11.84,0,23.68,0,35.53,0c0.97,0,1.91-0.11,2.7-0.75c0.95-0.58,1.41-1.53,1.85-2.5C204.17,32.69,204.25,32.77,204.33,32.86z"/>
		<path class="st3" d="M55.05,33.97c0.98,1.48,2.44,1.87,4.1,1.87c11.68,0,23.35-0.01,35.03,0.03c1.2,0,2.19-0.48,3.25-0.84
			c0.1,0.63-0.27,0.9-0.79,1.09c-0.7,0.25-1.41,0.32-2.14,0.32c-11.84-0.01-23.67-0.01-35.51-0.01c-2.99,0-4.24-0.96-5-3.82
			c0.16,0,0.33-0.01,0.49-0.01c0.13,0.34,0.26,0.67,0.39,1.01C54.92,33.72,54.99,33.85,55.05,33.97z"/>
		<path class="st5" d="M97.69,5.82C97.35,5.61,97,5.4,96.65,5.19c-0.14-0.19-0.33-0.28-0.57-0.25L96.02,4.9c0,0-0.07,0.04-0.07,0.04
			c-0.37-0.36-0.84-0.31-1.29-0.31c-12.05,0-24.1,0-36.14,0.01c-0.84,0-1.63,0.15-2.22,0.83c-0.22,0.1-0.44,0.21-0.66,0.31
			c-0.04-0.77,0.35-1.17,1.07-1.34c0.71-0.17,1.42-0.28,2.15-0.28c11.93,0.01,23.87,0.01,35.8,0.01c0.63,0,1.26,0.06,1.89,0.18
			C97.46,4.51,97.84,4.92,97.69,5.82z"/>
		<path class="st3" d="M2.62,34.08c0.91,1.33,2.23,1.77,3.77,1.77c11.83-0.01,23.66-0.02,35.5,0.01c1.11,0,1.97-0.6,2.97-0.87
			c0.14,0.17,0.81,0.29,0.18,0.57c-0.69,0.3-1.47,0.52-2.22,0.56c-7.85,0.45-15.71,0.47-23.55,0.22c-4.13-0.13-8.26-0.18-12.38-0.13
			c-1.54,0.02-2.9,0.12-4.19-0.87c-0.83-0.64-1.28-1.72-0.85-2.74C2.1,33.09,2.16,33.68,2.62,34.08z"/>
		<path class="st3" d="M1.79,32.32c-0.65-0.11-0.55-0.62-0.55-1.06c0-8.12,0-16.24,0-24.35c0-0.58,0-1.13,0.82-1.08
			C2.13,6.08,2.22,6.34,2.3,6.6c0.03,0.08,0.05,0.16,0.07,0.24c-0.36,0.3-0.4,0.7-0.39,1.13C1.66,8.42,1.82,8.93,1.82,9.42
			C1.8,17.05,1.8,24.68,1.79,32.32z"/>
		<path class="st6" d="M149.96,34.83c0.95-1.35,1.08-2.9,1.08-4.47c0.01-6.94,0-13.89,0-20.83c0-0.58-0.11-1.19,0.26-1.72
			c0.08,0.02,0.15,0.06,0.21,0.12c0,7.73-0.01,15.46-0.02,23.2C151.49,32.56,151.33,33.95,149.96,34.83z"/>
		<path class="st6" d="M1.79,32.32C1.8,24.68,1.8,17.05,1.82,9.42c0-0.48-0.16-1,0.17-1.45C2.09,7.98,2.18,8,2.28,8.01
			c0.01,7.45,0.05,14.89-0.01,22.34c-0.01,1.27,0.77,2.44,0.34,3.72c-0.45-0.39-0.51-0.99-0.77-1.49C1.82,32.5,1.8,32.41,1.79,32.32
			z"/>
		<path class="st7" d="M199.47,25.89c-0.18-1.43,0.48-2.14,1.88-2.22c0.34,0.14,0.67,0.12,1.01,0c0.3,0,0.6,0,0.9,0
			c0.22,0.15,0.44,0.31,0.66,0.46c-0.07,0.14-0.14,0.29-0.21,0.43c-0.8,0.37-1.72-0.12-2.5,0.34c-0.07-0.01-0.12,0.01-0.16,0.07
			c-0.34,0.16-0.34,0.33-0.03,0.52l0.01,0.01c0.67,0.49,1.45,0.17,2.17,0.3l0,0.01c1.16,1.06,1.19,1.59,0.18,2.91
			c-1.23,0.19-2.47,0.19-3.7,0.06c-0.05-0.57,0.07-0.92,0.78-0.91c0.65,0.01,1.33,0.22,1.94-0.16c0,0,0.02-0.01,0.02-0.01
			c0.5-0.49,0.36-0.74-0.3-0.8c-0.18,0-0.36,0-0.54,0c-0.09-0.01-0.18-0.01-0.27-0.02c-0.25-0.02-0.5-0.04-0.75-0.05
			c-0.29-0.17-0.58-0.35-0.87-0.52c0,0,0,0.01,0,0.01C199.62,26.16,199.55,26.02,199.47,25.89z"/>
		<path class="st4" d="M54.48,32.59c-0.16,0-0.33,0.01-0.49,0.01c0-8.3,0-16.59,0-24.89c0.15,0.01,0.31,0.02,0.46,0.03
			C54.46,16.02,54.47,24.3,54.48,32.59z"/>
		<path class="st4" d="M107.02,8c-0.01,8.02-0.02,16.04-0.04,24.05c-0.63-0.15-0.51-0.67-0.51-1.1c0-7.3,0-14.59,0-21.89
			C106.47,8.62,106.37,8.11,107.02,8z"/>
		<path class="st4" d="M147.48,4.49c-1.32,0.02-2.63,0.07-3.95,0.07c-10.45,0-20.89,0-31.34,0c-0.72,0-1.45,0.07-2.17,0.11
			c0.02-0.38,0.02-0.64,0.6-0.62c11.73,0.29,23.45,0.06,35.18,0.14C146.37,4.18,147,3.96,147.48,4.49z"/>
		<path class="st4" d="M98.86,32.31c0.01-0.64,0.03-1.28,0.04-1.92c0.26-0.31,0.19-0.69,0.19-1.05c0-7,0.01-13.99-0.02-20.99
			c0-0.58-0.18-1.16-0.28-1.73c0.87,0.23,0.54,0.95,0.54,1.47c0.02,8.07,0.01,16.14,0.01,24.21C99.19,32.31,99.03,32.31,98.86,32.31
			z"/>
		<path class="st5" d="M98.8,6.63c0.1,0.58,0.28,1.16,0.28,1.73c0.02,6.99,0.02,13.99,0.02,20.99c0,0.36,0.06,0.73-0.19,1.05
			c-0.03-2.68-0.08-5.36-0.1-8.04c-0.02-4.14-0.05-8.28,0.01-12.42c0.02-1.46-0.18-2.79-1-4.01C98.49,5.69,98.48,6.39,98.8,6.63z"/>
		<path class="st8" d="M159.66,8.54c0.11-0.54,0.21-1.08,0.32-1.62c0.02-0.09,0.05-0.18,0.07-0.27c0,0,0,0,0,0
			c0.31-0.07,0.51-0.24,0.51-0.58c0.05-0.03,0.09-0.07,0.12-0.12c0.07,0,0.14-0.01,0.21-0.02c-0.13,1.75-0.9,3.42-0.58,5.22
			c0.08,0.45-0.2,1.05,0.52,1.23c-0.27,0.73-0.54,1.45-0.81,2.18c-0.14-0.03-0.28-0.07-0.41-0.1c0.03-0.33,0.05-0.65,0.08-0.98
			c0.11-0.28,0.12-0.56-0.03-0.83c0-1,0.01-2,0.01-2.99C159.8,9.27,159.8,8.9,159.66,8.54z"/>
		<path class="st9" d="M151.51,7.93c-0.06-0.06-0.13-0.1-0.21-0.12c-0.42-1.64-1.58-2.57-3.09-3.13c0.76-0.18,1.4,0.07,2,0.51
			c0.26,0.19,0.55,0.61,0.77-0.04c0.04-0.11,0-0.29,0.21-0.14C151.79,5.43,152,7.28,151.51,7.93z"/>
		<path class="st6" d="M107.39,33.41c1.15,0.52,1.81,1.67,2.91,2.25C108.89,35.48,107.93,34.72,107.39,33.41z"/>
		<path class="st5" d="M203.38,28.7c1.01-1.32,0.98-1.84-0.18-2.91c0.18-0.01,0.37-0.03,0.55-0.04c1.05,0.43,1.19,1.85,0.29,3.01
			C203.83,28.74,203.6,28.72,203.38,28.7z"/>
		<path class="st3" d="M202.95,29.81c0.36-0.17,0.72-0.34,1.08-0.5c0.1,0.01,0.2,0.01,0.29,0.02c0.01,0.22,0.07,0.41,0.27,0.53
			c0,0.73,0,1.45-0.01,2.18c-0.15,0-0.3,0-0.45,0.01c-0.02-0.35-0.08-0.71-0.05-1.06c0.09-0.87-0.22-1.24-1.11-0.98
			C202.99,29.94,202.98,29.87,202.95,29.81z"/>
		<path class="st4" d="M203.76,25.76c-0.19,0.01-0.37,0.03-0.55,0.04c0,0,0-0.01,0-0.01c-0.66-0.58-1.44-0.2-2.17-0.3
			c0,0-0.01-0.01-0.01-0.01c0.01-0.17,0.02-0.35,0.03-0.52c0.03-0.06,0.09-0.09,0.16-0.07c0.85,0.01,1.7,0.02,2.55,0.03
			C204.06,25.21,203.71,25.48,203.76,25.76z"/>
		<path class="st4" d="M45.27,34.51c0.28-0.68,0.43-1.41,0.96-1.97C46.57,33.52,46.6,34.34,45.27,34.51z"/>
		<path class="st4" d="M2.3,6.6C2.22,6.34,2.13,6.08,2.05,5.82c0.41-0.44,0.74-1.09,1.52-0.64C3.51,5.3,3.46,5.42,3.4,5.54
			C3.32,5.56,3.28,5.61,3.3,5.7c0.02,0.03,0.04,0.05,0.07,0.08C3.34,5.75,3.32,5.72,3.3,5.7C3.05,5.76,2.82,5.84,2.81,6.16
			C2.64,6.31,2.47,6.45,2.3,6.6z"/>
		<path class="st9" d="M159.78,18.41c-0.17,0.08-0.33,0.15-0.5,0.23c0.07-0.55,0.41-1.1,0-1.65c-0.03-0.4,0.04-0.76,0.35-1.11
			c0.24,0.6-0.13,1.24,0.4,1.68C159.94,17.84,159.86,18.12,159.78,18.41z"/>
		<path class="st5" d="M54.45,7.73c-0.15-0.01-0.31-0.02-0.46-0.03c0.09-0.94,0.23-1.84,1.49-1.84C55.14,6.49,54.79,7.11,54.45,7.73
			z"/>
		<path class="st5" d="M98.86,32.31c0.17,0,0.33-0.01,0.5-0.01c0.33,0.85-0.34,1.21-0.83,1.65C98.35,33.35,98.67,32.84,98.86,32.31z
			"/>
		<path class="st6" d="M148.01,35.71c0.42-0.39,0.78-0.92,1.49-0.59C149.09,35.54,148.63,35.83,148.01,35.71z"/>
		<path class="st5" d="M203.76,24.93c-0.85-0.01-1.7-0.02-2.55-0.03c0.79-0.47,1.7,0.03,2.5-0.34
			C203.73,24.68,203.75,24.8,203.76,24.93z"/>
		<path class="st6" d="M3.4,5.54C3.46,5.42,3.51,5.3,3.57,5.18c0,0,0.01-0.03,0-0.03C3.73,5.07,3.89,4.99,4.05,4.9
			C4.2,4.85,4.35,4.79,4.5,4.73c0.03,0.06,0.02,0.12-0.02,0.18C4.29,5.41,3.84,5.46,3.4,5.54z"/>
		<path class="st5" d="M203.93,24.12c-0.22-0.15-0.44-0.31-0.66-0.46c0.26-0.04,0.51-0.07,0.76-0.11
			C204.33,23.81,204.32,24,203.93,24.12z"/>
		<path class="st4" d="M204.14,32.05c0.15,0,0.3,0,0.45-0.01c0,0.3,0.03,0.61-0.27,0.82c-0.08-0.09-0.15-0.18-0.23-0.26
			C204.11,32.42,204.13,32.23,204.14,32.05z"/>
		<path class="st4" d="M204.6,29.86c-0.2-0.12-0.26-0.31-0.27-0.53C204.68,29.37,204.97,29.45,204.6,29.86z"/>
		<path class="st9" d="M160.56,6.07c0,0.34-0.2,0.51-0.51,0.58c0-0.18,0-0.36,0-0.53c0,0,0.01-0.01,0.01-0.01
			C160.23,6.09,160.4,6.08,160.56,6.07z"/>
		<path class="st4" d="M4.05,4.9C3.89,4.99,3.73,5.07,3.57,5.16c-0.06-0.2-0.18-0.43,0.1-0.54C3.89,4.54,3.95,4.77,4.05,4.9z"/>
		<path class="st3" d="M160.06,6.11c-0.04-0.02-0.07-0.05-0.11-0.07c0.04,0.02,0.08,0.04,0.12,0.06
			C160.07,6.1,160.06,6.11,160.06,6.11z"/>
		<path class="st9" d="M160.06,6.64c-0.02,0.09-0.05,0.18-0.07,0.27c-0.06-0.09-0.11-0.18-0.17-0.27
			C159.9,6.64,159.98,6.64,160.06,6.64z"/>
		<path class="st4" d="M148.16,4.61l-0.09,0.02c0,0-0.08-0.05-0.08-0.05c0.04-0.06,0.09-0.13,0.13-0.19
			C148.13,4.46,148.15,4.54,148.16,4.61z"/>
		<path class="st9" d="M160.89,5.92c-0.07,0.02-0.14,0.03-0.21,0.02c0.06-0.16,0.13-0.31,0.19-0.47c0.04,0.07,0.06,0.14,0.06,0.22
			C160.93,5.77,160.92,5.85,160.89,5.92z"/>
		<path class="st4" d="M11.33,16.05c0.27,0,0.45,0,0.63,0c1.09,0.03,2.16,0.11,2.37,1.5c0.21,1.38-0.67,2.74-2.06,2.91
			c-1.16,0.14-2.11,0.19-2.05,1.75c0.03,0.66-0.63,0.65-1.15,0.61c-0.62-0.05-0.56-0.5-0.5-0.9c0.25-1.66,0.52-3.32,0.78-4.98
			C9.57,15.5,10.7,16.27,11.33,16.05z M10.85,18.62c0,0.12-0.23,0.62,0.48,0.59c0.6-0.02,1.07-0.18,1.14-0.88
			c0.06-0.56-0.18-0.83-0.75-0.87C11.04,17.42,10.85,17.79,10.85,18.62z"/>
		<path class="st4" d="M29.1,20.59c-0.27,0.01-0.54,0.01-0.81,0.02c-0.42-0.1-0.63,0.04-0.54,0.5c-0.09,0.39-0.2,0.78-0.25,1.18
			c-0.1,0.72-0.65,0.44-1.04,0.5c-0.58,0.08-0.7-0.27-0.65-0.74c0.06-0.58,0.13-1.16,0.2-1.73c0.12-0.57,0.27-1.14,0.36-1.72
			c0.48-3.06,0.08-2.44,2.96-2.5c0.91-0.02,1.92,0.08,2.17,1.18c0.26,1.15-0.11,2.17-1.13,2.84C29.99,20.36,29.53,20.44,29.1,20.59z
			 M28.83,17.43c-0.84-0.08-0.68,0.63-0.78,1.12c-0.09,0.47,0.12,0.68,0.6,0.64c0.6-0.05,1.06-0.18,1.05-0.94
			C29.69,17.65,29.42,17.43,28.83,17.43z"/>
		<path class="st4" d="M33.5,18.16c0.89-0.04,1.74,0.44,2.67,0.11c0.42-0.15,0.79,0.13,0.69,0.7c-0.02,0.09-0.04,0.18-0.05,0.27
			c-0.18,1.16,0.04,2.71-0.76,3.34c-0.76,0.59-2.22,0.29-3.37,0.38c-1.46-0.9-1.71-1.6-1.22-2.99
			C31.81,18.95,32.58,18.49,33.5,18.16z M35.09,20.43c-0.04-0.62-0.35-1-1.01-0.97c-0.83,0.04-1.15,0.61-1.22,1.35
			c-0.05,0.58,0.4,0.82,0.86,0.82C34.46,21.63,34.98,21.26,35.09,20.43z"/>
		<path class="st10" d="M13.98,20.91c-0.01-1.3,0.98-2.56,2.22-2.69c0.98-0.1,1.95,0.28,2.96,0.12c0.43-0.07,0.48,0.31,0.43,0.65
			c-0.07,0.54-0.13,1.08-0.23,1.61c-0.22,1.22-0.04,2.88-2.2,1.98c-0.18-0.08-0.49,0.2-0.75,0.26C15,23.17,13.99,22.36,13.98,20.91z
			 M16.9,19.48c-0.78,0.04-1.27,0.44-1.32,1.23c-0.04,0.6,0.35,0.9,0.93,0.9c0.82,0.01,1.25-0.42,1.27-1.23
			C17.79,19.81,17.57,19.42,16.9,19.48z"/>
		<path class="st6" d="M33.5,18.16c-0.92,0.33-1.68,0.79-2.04,1.81c-0.49,1.39-0.24,2.09,1.22,2.99c-1.34,0.28-1.92-0.61-2.04-1.64
			c-0.09-0.78-0.13-0.92-0.76-0.44c-0.41,0.31-0.65,0.16-0.77-0.29c0.42-0.15,0.89-0.24,1.26-0.48c1.03-0.66,1.39-1.69,1.13-2.84
			c-0.25-1.11-1.25-1.2-2.17-1.18c-2.88,0.06-2.48-0.57-2.96,2.5c-0.09,0.58-0.24,1.15-0.36,1.72c-0.36-0.11-0.72-0.22-1.08-0.32
			c0.13-0.23,0.3-0.45,0.37-0.7c0.08-0.28,0.58-0.46,0.3-0.8c-0.3-0.36-0.78-0.21-1.13-0.1c-0.69,0.2-0.76,1.06-1.35,1.41
			c-0.1-0.93,0.11-1.68,1.14-1.94c1.12-0.28,1.74-1,1.85-2.13c0.07-0.69,0.11-0.94,0.97-0.57c0.91,0.39,2.01,0.42,3.03,0.48
			c0.71,0.04,1.38,0.28,1.55,0.88C31.93,17.54,32.61,17.92,33.5,18.16z"/>
		<path class="st10" d="M23.12,19.8c0.59-0.34,0.66-1.21,1.35-1.41c0.36-0.1,0.83-0.26,1.13,0.1c0.28,0.34-0.22,0.52-0.3,0.8
			c-0.07,0.25-0.24,0.47-0.37,0.7c-0.07,0.08-0.14,0.17-0.22,0.25c-0.37,0.17-0.54,0.47-0.55,0.87c-0.63,0.88-1.29,1.75-1.89,2.66
			c-0.32,0.48-0.72,0.64-1.26,0.63c-0.56-0.01-0.87-0.27-0.45-0.73c1.11-1.22,0.54-2.4,0.16-3.67c-0.15-0.49-1-1.25,0-1.65
			c1.01-0.4,1.29,0.44,1.51,1.23c0.08,0.31-0.01,0.81,0.55,0.75C23.05,20.3,23.07,20.01,23.12,19.8z"/>
		<path class="st2" d="M3.4,5.54c0.44-0.07,0.89-0.13,1.08-0.63c0.63-0.31,1.31-0.32,2-0.32c11.81,0,23.62,0.01,35.43-0.01
			c1.18,0,2.2,0.3,2.99,1.21c-6.01-1.62-12.13-0.6-18.2-0.77C20.57,4.85,14.43,4.99,8.3,4.99c-1.31,0-2.64-0.13-3.82,0.67
			C4.13,5.89,3.7,5.81,3.3,5.7C3.28,5.61,3.32,5.56,3.4,5.54z"/>
		<path class="st4" d="M39.5,16.88c-0.25,1.7-0.51,3.4-0.76,5.1c-0.1,0.68-0.53,0.89-1.16,0.81c-0.76-0.1-0.47-0.65-0.41-1.04
			c0.24-1.66,0.55-3.31,0.78-4.96c0.1-0.69,0.51-0.75,1.05-0.75C39.66,16.04,39.56,16.46,39.5,16.88z"/>
		<path class="st2" d="M2.28,8.01C2.18,8,2.09,7.98,1.99,7.96C1.98,7.54,2.02,7.13,2.38,6.84C2.39,7.23,2.83,7.66,2.28,8.01z"/>
		<path class="st2" d="M2.81,6.16c0-0.32,0.23-0.4,0.48-0.46c0.08,0.34,0.25,0.75-0.18,0.92C2.82,6.72,2.89,6.33,2.81,6.16z"/>
		<path class="st6" d="M24.17,21.11c0.01-0.4,0.17-0.7,0.55-0.87C24.73,20.65,24.74,21.07,24.17,21.11z"/>
		<path class="st6" d="M27.75,21.11c-0.08-0.46,0.12-0.59,0.54-0.5C28.24,20.91,28.07,21.09,27.75,21.11z"/>
		<path class="st4" d="M82.96,25.2l-0.06-0.06c0,0-0.08,0.02-0.08,0.02c0.03-1.46,1.03-2.59,1.34-3.95c0,0,0-0.02,0-0.02
			c0.05-0.12,0.1-0.24,0.15-0.35c0.5-1.16,1.06-2.3,1.47-3.49c0.45-1.28,1.45-1.13,2.44-1.15c1.02-0.02,0.94,0.8,1.08,1.42
			c0.54,2.42,1.05,4.85,1.57,7.28c-0.67,0.43-1.42,0.16-2.13,0.24c0,0,0.03,0.02,0.03,0.02c-0.2-0.47-0.03-1.25-0.73-1.31
			c-0.83-0.07-2.15-0.46-2.44,0.2C84.97,25.45,83.89,24.98,82.96,25.2z M86.25,21.82c0.58,0.14,1.28,0.4,1.48-0.04
			c0.42-0.89-0.14-1.76-0.44-2.95C86.87,20.03,86.57,20.91,86.25,21.82z"/>
		<path class="st8" d="M84.15,21.21c-0.31,1.36-1.3,2.49-1.34,3.95c-0.54-0.2-1.06-0.08-1.58,0.1c-1.03,0.36-2.09,0.55-3.2,0.5
			c-0.78-0.03-1.55,0-2.05-0.77c-0.32-0.49-0.73-0.1-1.11-0.05c0.34-2.31,0.68-4.62,1.03-6.93c0.27-1.73,0.28-1.73-1.43-1.86
			c0.61-0.89,1.73-0.73,2.05-0.2c0.74,1.19,1.29,0.53,1.96,0.14c1.52-0.89,3.19-0.53,4.73-0.25c0.98,0.17,0.24,1.43,0.35,2.17
			c0.07,0.47-0.53,0.98-1.27,0.93c-0.58-0.04-1.11-0.46-1.81-0.08C82.31,18.78,82.41,21.18,84.15,21.21z M79,25.26
			c0.24-0.04,0.84-0.08,1.39-0.26c1.16-0.39,2.15-1,2.33-2.38c0.18-1.42-0.71-2.12-1.77-2.77c-0.52-0.32-1.55-0.41-1.25-1.32
			c0.27-0.82,1.18-0.42,1.82-0.5c0.13-0.02,0.28-0.02,0.41,0.02c0.76,0.28,0.95-0.14,1.06-0.78c0.14-0.73-0.2-1-0.85-1.08
			c-1.28-0.17-2.52-0.15-3.68,0.58c-1.71,1.09-1.76,3.13-0.06,4.23c0.46,0.3,0.97,0.51,1.42,0.8c0.31,0.2,0.57,0.48,0.4,0.91
			c-0.14,0.37-0.4,0.58-0.82,0.58c-0.68,0.01-1.37,0.09-2.03-0.14c-0.38-0.13-0.84-0.41-0.96,0.24c-0.1,0.54-0.42,1.2,0.35,1.55
			C77.36,25.23,78.01,25.25,79,25.26z"/>
		<path class="st4" d="M68.57,21.62c0.51-1.45,1.02-2.91,1.54-4.36c0.32-0.89,1.7-1.43,2.53-1.01c0.36,0.18,0.23,0.39,0.11,0.66
			c-1.05,2.51-2.09,5.02-3.11,7.54c-0.41,1.01-1.26,0.63-1.98,0.71c-0.77,0.09-0.87-0.46-1.01-0.99c-0.55-2.1-1.09-4.21-1.63-6.31
			c0.76-0.34,0.98,0.43,1.4,0.72c0.46,0.31,0.6,0.99,1.25,1.11c0.4,0.63,0.21,1.46,0.69,2.05C68.46,21.75,68.53,21.71,68.57,21.62z"
			/>
		<path class="st4" d="M74.48,16.15c1.71,0.13,1.7,0.13,1.43,1.86c-0.35,2.31-0.69,4.62-1.03,6.93c-0.12,0.05-0.25,0.14-0.37,0.15
			c-2.05,0.24-2.12,0.16-1.78-1.84c0.34-2,0.68-4.01,0.99-6.02C73.79,16.72,73.82,16.22,74.48,16.15z"/>
		<path class="st8" d="M56.3,5.47c0.59-0.68,1.38-0.83,2.22-0.83c12.05-0.01,24.1-0.01,36.14-0.01c0.45,0,0.92-0.05,1.29,0.31
			c-7.51,0.02-15.02,0.03-22.52,0.05c-3,0.01-6.01-0.01-9.01,0C61.7,5,58.97,4.81,56.3,5.47z"/>
		<path class="st11" d="M67.68,19.68c-0.65-0.12-0.8-0.81-1.25-1.11c-0.43-0.29-0.65-1.06-1.4-0.72C64,16.91,64,16.91,62.86,16.53
			C66.17,15.17,67.6,16.11,67.68,19.68z"/>
		<path class="st8" d="M82.96,25.2c0.93-0.22,2.01,0.26,2.63-1.14c0.3-0.67,1.61-0.27,2.44-0.2c0.7,0.06,0.54,0.84,0.73,1.31
			c-0.29,0.05-0.54-0.05-0.74-0.25c-0.67-0.67-1.21-0.46-1.81,0.15C85.37,25.95,83.7,25.98,82.96,25.2z"/>
		<path class="st8" d="M88.73,25.15c0.71-0.08,1.46,0.19,2.13-0.24C90.15,25.99,89.63,26.05,88.73,25.15z"/>
		<path class="st11" d="M68.57,21.62c-0.04,0.1-0.11,0.14-0.2,0.12C68.41,21.64,68.36,21.42,68.57,21.62z"/>
		<path class="st8" d="M96.08,4.94c0.24-0.03,0.43,0.05,0.57,0.25C96.23,5.65,96.15,5.31,96.08,4.94z"/>
		<path class="st9" d="M55.05,33.97c-0.06-0.12-0.12-0.24-0.18-0.37C54.92,33.72,54.99,33.85,55.05,33.97z"/>
		<path class="st8" d="M84.3,20.84c-0.05,0.12-0.1,0.24-0.15,0.35C84.2,21.08,84.25,20.96,84.3,20.84z"/>
		<path class="st11" d="M129.45,13.39c2.9-2.03,6.02-2.33,9.1-0.69c3.2,1.7,4.74,4.57,4.46,8.21c-0.27,3.54-2.21,5.96-5.51,7.27
			c-2.85,1.13-5.51,0.56-8.04-0.99c-0.01-0.05-0.03-0.09-0.05-0.13c0.82-1.1,1.7-2.12,2.33-3.39c0.97-1.94,0.89-5.45-0.26-7.35
			c-0.62-1.01-1.39-1.88-2.07-2.82L129.45,13.39z"/>
		<path class="st12" d="M129.45,13.39c0,0-0.03,0.11-0.03,0.11c-4.73,3.33-4.57,10.25,0,13.56c0.02,0.04,0.04,0.09,0.05,0.13
			c-1.01,0.1-1.74,0.86-2.7,1.15c-3.98,1.2-7.36,0.02-9.7-3.1c-2.66-3.56-2.26-8.6,1.53-11.6c3.1-2.46,6.51-2.7,9.99-0.66
			C128.86,13.13,129.16,13.25,129.45,13.39z"/>
		<path class="st13" d="M160.89,5.92c0.03-0.07,0.04-0.14,0.04-0.22c0.15-0.06,0.3-0.12,0.44-0.17c1.21,0.31,2.34-0.31,3.55-0.3
			c12.14,0.05,24.29,0.02,36.44,0.01c0.16,0.08,0.33,0.17,0.49,0.25c0.17,0.27,0.41,0.3,0.68,0.18c0,0,0.02,0.03,0.02,0.03
			c-0.38,1.04,0.5,1.58,0.91,2.31c0.01,3.85,0.02,7.7,0.05,11.56c0,0.52-0.18,1.1,0.25,1.56c0.09,0,0.18,0,0.27,0
			c0,0,0.09-0.02,0.09-0.02c-0.05,0.19-0.1,0.38-0.15,0.57c-1.44,0.15-2.87,0.3-4.32,0.3c-7.35-0.03-14.71-0.02-22.06-0.02
			c-0.82,0-1.64-0.02-2.28,0.63c-0.09,0-0.17-0.03-0.25-0.08c-0.07-0.46-0.39-0.55-0.79-0.55c-2.03,0-4.06,0-6.09,0
			c-0.53,0-1.01,0.1-1,0.8c-0.02,0.1-0.03,0.21-0.05,0.31c-0.39,0.04-0.52,0.29-0.52,0.65c0,1.84,0,3.67,0.01,5.51
			c0,0.37,0.17,0.59,0.55,0.62c0.08,0,0.16,0.02,0.24,0.04c2.58,0.43,5.17,0.37,7.75,0.03c0.08,0,0.13-0.02,0.18-0.09
			c0.14-0.03,0.2-0.1,0.14-0.24c0.06-0.03,0.1-0.07,0.14-0.13c0.18,0.05,0.36,0.1,0.55,0.15c0,0,0,0,0,0
			c0.08,0.15,0.15,0.42,0.23,0.43c1.67,0.1,3.34,0.44,4.99-0.15c0.01-0.19,0.03-0.37,0.04-0.56c0.16-0.94,0.9-0.83,1.57-0.86
			c0.04,0.11,0.08,0.22,0.11,0.33c-0.08,0.43-0.27,0.9,0.15,1.24c0.52,0.42,3.06-0.02,3.56-0.59c0.1,0.14,0.21,0.29,0.31,0.43
			c0.37,0.51,0.91,0.28,1.37,0.28c3.35,0.02,6.69,0.04,10.04,0c1.48-0.01,2.98,0.18,4.46-0.14c0.89-0.27,1.19,0.11,1.11,0.98
			c-0.03,0.35,0.03,0.71,0.05,1.06c-0.02,0.18-0.03,0.37-0.05,0.55c-0.44,0.96-0.9,1.91-1.85,2.5c-1.24-0.22-2.42,0.26-3.66,0.25
			c-10.93-0.04-21.86-0.02-32.78-0.02c-1.39,0-2.84,0.25-3.97-0.95c-0.25-0.26-0.69-0.16-1.05-0.08c0,0,0.01,0.01,0.01,0.01
			c-0.5-1.75-0.53-3.55-0.5-5.36c0.03-2.21,0.03-4.43,0-6.64c-0.02-1.12-0.18-2.25,1.54-2.06c0.24,0.03,0.34-0.25,0.4-0.48
			c0.28-0.15,0.51-0.85,0.86-0.06c0.16,0.36,0.51,0.31,0.82,0.29c0.07,0,0.14,0,0.22-0.01c0.1,0.1,0.19,0.2,0.29,0.3
			c4.09,0,8.19,0,12.28,0c0.41,0,0.89,0.15,1.21-0.01c1.02-0.51,2.26,0.54,3.17-0.51c0.09-0.01,0.19-0.01,0.28-0.02
			c0.16,0.34,0.43,0.53,0.81,0.53c0.77,0,1.54,0.05,2.31,0c0.53-0.04,1.22,0.34,1.53-0.46c0.25-0.08,0.49-0.17,0.74-0.25
			c0.99,0.93,2.23,0.7,3.41,0.71c0.48,0,1.13,0.26,1.31-0.53c0.65-1.38,0.65-1.38,1.9,0.09c-0.09,0.25-0.06,0.45,0.27,0.45
			c1.18,0,2.36-0.01,3.54-0.02c0.31,0,0.51-0.16,0.56-0.48c0.47-0.25,0.93-0.12,1.39,0.01c0.82,0.8,1.64,0.77,2.46,0.01
			c0.09-0.03,0.17-0.06,0.26-0.09c0.64-0.73,0.38-1.68,0.43-2.47c0.11-1.72,0.5-3.5-0.21-5.21c-0.07-0.02-0.13-0.06-0.17-0.12
			c-1.02-0.35-2.03-0.14-3.04,0.06c-0.17,0.06-0.34,0.11-0.51,0.17c-0.09-0.11-0.18-0.21-0.27-0.32c-0.28-0.32-0.42-0.05-0.58,0.14
			c-0.11-0.01-0.21-0.02-0.32-0.03c-0.36-0.47-0.88-0.4-1.38-0.4c-2.13,0-4.26-0.02-6.4,0c-0.99,0.01-1.96,0.16-2.89,0.54
			c-0.17-0.04-0.33-0.08-0.5-0.12c-0.32-0.69-0.95-0.42-1.45-0.42c-6.19-0.02-12.39,0-18.58-0.02c-1.13,0-2.26,0.06-3.39-0.21
			c-0.66-0.16-1.51-0.22-1.71,0.82c0.01,0.08-0.02,0.15-0.07,0.21c-0.72-0.18-0.44-0.78-0.52-1.23
			C159.99,9.34,160.76,7.67,160.89,5.92z"/>
		<path class="st7" d="M169.39,16.51c0.24-0.84,0.53-1.51,0.61-2.19c0.15-1.2,0.96-1.12,1.81-1.08c1.07,0.05,0.71,0.87,0.73,1.43
			c0.04,0.95,0.01,1.91,0.02,2.87c0,0.49-0.05,0.93-0.71,0.91c-0.62-0.02-0.56-0.46-0.56-0.88c0-0.91,0-1.82,0-3.04
			c-0.7,1.07-0.72,2.06-1.07,2.92c-0.18,0.46-0.2,0.98-0.89,1.01c-0.74,0.03-0.74-0.49-0.87-0.97c-0.25-0.9-0.54-1.79-1.08-2.65
			c0,0.93-0.01,1.86,0,2.79c0.01,0.5-0.02,0.94-0.69,0.9c-0.59-0.03-0.59-0.43-0.58-0.87c0.01-1.05-0.02-2.09-0.01-3.14
			c0.01-0.56-0.17-1.28,0.78-1.27c0.74,0.01,1.58-0.25,1.72,0.96C168.69,14.94,168.83,15.7,169.39,16.51z"/>
		<path class="st7" d="M196.91,15.67c0,0.68-0.01,1.35,0,2.03c0.01,0.45-0.04,0.83-0.63,0.82c-0.55,0-0.66-0.3-0.65-0.79
			c0.02-1.14-0.02-2.27-0.02-3.41c0-0.4-0.06-0.89,0.47-1.01c0.54-0.12,1.1-0.11,1.46,0.44c0.51,0.78,1.01,1.56,1.83,2.28
			c0-0.7,0-1.39,0-2.09c0-0.43,0.17-0.69,0.64-0.67c0.41,0.02,0.54,0.29,0.54,0.64c0,1.32,0,2.64-0.01,3.95
			c0,0.35-0.11,0.59-0.54,0.61c-0.47,0.02-0.89,0.04-1.19-0.43c-0.52-0.83-1.07-1.64-1.61-2.46
			C197.11,15.61,197.01,15.64,196.91,15.67z"/>
		<path class="st7" d="M178.64,15.83c-0.01-2.87,0.03-2.92,2.84-2.57c0.66,0.08,1.39,0.14,1.66,0.94c0.27,0.8,0.22,1.54-0.54,2.05
			c-0.86,0.57,0,0.88,0.18,1.28c0.13,0.3,0.76,0.48,0.41,0.85c-0.33,0.35-0.88,0.19-1.24-0.12c-0.37-0.32-0.65-0.75-0.99-1.11
			c-0.21-0.22-0.41-0.55-0.78-0.38c-0.3,0.13-0.21,0.46-0.23,0.72c-0.03,0.49,0.08,1.05-0.74,0.97c-0.83-0.08-0.53-0.69-0.57-1.13
			C178.61,16.83,178.64,16.33,178.64,15.83z M180.94,15.61c0.34-0.06,1,0.17,1.02-0.59c0.02-0.72-0.6-0.64-1.07-0.7
			c-0.48-0.06-0.92-0.01-0.94,0.63C179.91,15.61,180.35,15.66,180.94,15.61z"/>
		<path class="st7" d="M173.54,15.92c0-2.66,0-2.66,2.62-2.68c0.23,0,0.46-0.01,0.68,0c0.41,0.01,0.9-0.01,0.88,0.58
			c-0.02,0.62-0.56,0.42-0.93,0.51c-0.65,0.15-1.82-0.41-1.83,0.52c0,1.02,1.16,0.3,1.78,0.49c0.36,0.11,0.93-0.14,0.94,0.48
			c0.01,0.64-0.53,0.56-0.99,0.63c-0.61,0.1-1.71-0.42-1.72,0.43c-0.02,0.95,1.08,0.32,1.67,0.46c0.47,0.11,1.13-0.09,1.09,0.66
			c-0.04,0.7-0.69,0.38-1.08,0.45c-0.18,0.03-0.36,0.01-0.55,0.01C173.54,18.53,173.54,18.53,173.54,15.92z"/>
		<path class="st7" d="M192.24,13.26c0.58-0.1,0.96,0.11,1.19,0.66c0.49,1.17,1.02,2.33,1.49,3.51c0.13,0.33,0.47,0.83-0.13,1.03
			c-0.36,0.12-0.76,0.02-1.06-0.4c-0.77-1.06-2.25-1.02-3.02,0.09c-0.36,0.52-0.81,0.47-1.17,0.29c-0.53-0.26-0.03-0.62,0.09-0.91
			c0.48-1.18,1-2.34,1.5-3.51C191.34,13.53,191.62,13.15,192.24,13.26z M192.31,14.62c-0.41,0.54-1.02,1.03-0.58,1.71
			c0.17,0.26,0.77,0.23,0.99,0.02C193.46,15.64,192.34,15.25,192.31,14.62z"/>
		<path class="st8" d="M160.89,12.16c0.2-1.04,1.05-0.98,1.71-0.82c1.13,0.27,2.26,0.21,3.39,0.21c6.19,0.01,12.39,0,18.58,0.02
			c0.5,0,1.13-0.28,1.45,0.42c-3.18,0.03-6.36,0.06-9.54,0.07c-3.41,0.02-6.81,0-10.22,0.04c-0.45,0.01-1.15-0.4-1.31,0.49
			c-0.03,0.19-0.18,0.2-0.27,0.09C163.58,11.38,162.16,12.32,160.89,12.16z"/>
		<path class="st7" d="M188.98,13.24c0.36,0.09,1.04-0.22,1.06,0.58c0.01,0.68-0.49,0.56-0.97,0.56c-0.8,0.01-1.57,0.18-1.69,1.19
			c-0.1,0.84,0.07,1.55,1.07,1.73c0.29,0.05,0.51,0.2,0.39,0.56c-0.15,0.47-0.48,0.59-0.95,0.54c-1.51-0.16-2.37-2.45-1.51-3.94
			C186.96,13.46,187.85,13.2,188.98,13.24z"/>
		<path class="st8" d="M162.24,19.76c-0.05,0.23-0.16,0.51-0.4,0.48c-1.72-0.19-1.56,0.94-1.54,2.06c0.03,2.21,0.03,4.43,0,6.64
			c-0.03,1.81,0,3.6,0.5,5.36c-0.23-0.04-0.46-0.09-0.69-0.13c-0.55-1.58-0.34-3.23-0.44-4.85c0.15-2.65,0.15-5.29-0.01-7.94
			c0-0.17,0-0.35-0.01-0.52c0-0.1,0-0.2,0-0.3c0.18-1.47,1.37-0.5,2.02-0.84c0.16-0.01,0.32-0.03,0.48-0.04L162.24,19.76z"/>
		<path class="st8" d="M160.55,16.69c0.37-0.91,0.77-1.8,1.11-2.72c0.24-0.64,0.7-0.7,1.28-0.71c0.63-0.01,0.86,0.33,1.04,0.84
			c0.33,0.88,0.69,1.75,1.04,2.63c-0.82,0.31-0.85-0.93-1.57-0.81c-0.2-0.43-0.41-0.86-0.63-1.33c-0.71,0.51-0.91,1.1-0.78,1.83
			C161.55,16.51,161.05,16.6,160.55,16.69z"/>
		<path class="st7" d="M163.45,15.92c0.72-0.11,0.75,1.12,1.57,0.81c0.06,0.07,0.15,0.13,0.16,0.2c0.09,0.49,0.81,1.03,0.26,1.42
			c-0.59,0.41-1.07,0-1.44-0.68c-0.33-0.61-2.22-0.48-2.62,0.18c-0.44,0.72-0.98,0.65-1.62,0.55c0.08-0.28,0.16-0.57,0.25-0.85
			c0.18-0.29,0.35-0.57,0.53-0.86c0.5-0.09,0.99-0.19,1.49-0.28C162.53,16.29,163.2,16.69,163.45,15.92z"/>
		<path class="st1" d="M176.7,20.29c-4.09,0-8.19,0-12.28,0c0-0.15,0.01-0.29,0.01-0.44c0.18-0.01,0.36-0.01,0.54-0.02
			c0.09,0.11,0.17,0.12,0.27,0.01c2.01,0,4.01,0,6.02-0.01c0.27,0.25,0.54,0.26,0.81,0c1.54,0.01,3.09,0.01,4.63,0.02
			C176.69,19.99,176.7,20.14,176.7,20.29z"/>
		<path class="st8" d="M186.52,12.1c0.93-0.38,1.9-0.53,2.89-0.54c2.13-0.02,4.26-0.01,6.4,0c0.5,0,1.02-0.07,1.38,0.4
			C193.63,12.27,190.07,11.95,186.52,12.1z"/>
		<path class="st7" d="M202.07,12.05c0.71,1.71,0.32,3.48,0.21,5.21c-0.05,0.79,0.21,1.75-0.43,2.47c0.02-2.03,0.04-4.06,0.07-6.08
			C201.93,13.12,201.79,12.56,202.07,12.05z"/>
		<path class="st7" d="M184.03,15.79c0-0.63,0-1.26,0-1.9c0-0.45,0.24-0.65,0.68-0.63c0.41,0.01,0.55,0.25,0.55,0.61
			c0,1.31,0.01,2.62,0,3.93c0,0.44-0.25,0.65-0.68,0.64c-0.41-0.01-0.54-0.28-0.54-0.63C184.02,17.14,184.03,16.47,184.03,15.79
			C184.03,15.79,184.03,15.79,184.03,15.79z M184.67,17.61c0.19-1.22,0.41-2.46-0.06-3.66C184.35,15.18,184.3,16.4,184.67,17.61z"/>
		<path class="st1" d="M197.74,19.8c-0.05,0.31-0.25,0.48-0.56,0.48c-1.18,0.01-2.36,0.02-3.54,0.02c-0.33,0-0.35-0.2-0.27-0.45
			C194.82,19.82,196.28,19.81,197.74,19.8z"/>
		<path class="st8" d="M191.47,19.74c-0.18,0.8-0.83,0.53-1.31,0.53c-1.18-0.01-2.42,0.23-3.41-0.71
			C188.32,19.78,189.89,19.79,191.47,19.74z"/>
		<path class="st9" d="M159.66,21.38c0.16,2.65,0.16,5.29,0.01,7.94C159.37,26.67,159.37,24.03,159.66,21.38z"/>
		<path class="st7" d="M176.7,20.29c0-0.15,0-0.3-0.01-0.45c1.46-0.02,2.92-0.04,4.38-0.07c-0.9,1.05-2.15-0.01-3.17,0.51
			C177.59,20.44,177.11,20.29,176.7,20.29z"/>
		<path class="st8" d="M186.01,19.82c-0.31,0.8-1,0.42-1.53,0.46c-0.77,0.05-1.54,0.01-2.31,0c0.01-0.15,0.01-0.31,0.02-0.46
			C183.46,19.82,184.73,19.82,186.01,19.82z"/>
		<path class="st8" d="M201.59,19.82c-0.82,0.76-1.64,0.79-2.46-0.01C199.95,19.81,200.77,19.82,201.59,19.82z"/>
		<path class="st8" d="M163.91,20c-0.31,0.01-0.66,0.07-0.82-0.29c-0.35-0.79-0.58-0.09-0.86,0.06c0,0-0.09-0.08-0.09-0.08
			c-0.06-0.17-0.11-0.33-0.17-0.5c0.52-0.56,1.06-0.91,1.38,0.14C163.46,19.66,163.82,19.7,163.91,20z"/>
		<path class="st7" d="M198.86,11.99c1.01-0.2,2.02-0.41,3.04-0.06C200.89,12.19,199.88,12.07,198.86,11.99z"/>
		<path class="st7" d="M182.19,19.82c-0.01,0.15-0.01,0.31-0.02,0.46c-0.38,0-0.65-0.19-0.81-0.53
			C181.63,19.77,181.91,19.8,182.19,19.82z"/>
		<path class="st7" d="M198.08,11.84c0.09,0.11,0.18,0.21,0.27,0.32c0,0.21,0.11,0.5-0.18,0.54c-0.18,0.02-0.2-0.25-0.18-0.43
			C198.02,12.12,198.05,11.98,198.08,11.84z"/>
		<path class="st9" d="M159.6,14.45c0.14,0.03,0.28,0.07,0.41,0.1c-0.01,0.18-0.04,0.42-0.23,0.4
			C159.45,14.93,159.55,14.66,159.6,14.45z"/>
		<path class="st9" d="M159.66,8.54c0.13,0.37,0.13,0.74,0,1.11C159.42,9.28,159.42,8.91,159.66,8.54z"/>
		<path class="st9" d="M159.65,12.64c0.14,0.27,0.13,0.55,0.03,0.83C159.48,13.2,159.43,12.92,159.65,12.64z"/>
		<path class="st9" d="M161.98,19.18c0.06,0.17,0.11,0.33,0.17,0.5c-0.16,0.01-0.32,0.03-0.48,0.04
			C161.77,19.54,161.87,19.36,161.98,19.18z"/>
		<path class="st7" d="M172.06,19.82c-0.27,0.26-0.54,0.25-0.81,0C171.52,19.82,171.79,19.82,172.06,19.82z"/>
		<path class="st8" d="M198.08,11.84c-0.03,0.14-0.06,0.28-0.09,0.42c-0.16-0.09-0.33-0.19-0.49-0.28
			C197.66,11.8,197.8,11.53,198.08,11.84z"/>
		<path class="st8" d="M164.42,19.85c0,0.15-0.01,0.29-0.01,0.44c-0.1-0.1-0.19-0.2-0.29-0.3
			C164.19,19.86,164.26,19.77,164.42,19.85z"/>
		<path class="st9" d="M159.65,20.55c0,0.1,0,0.2,0,0.3c-0.03-0.07-0.07-0.14-0.08-0.21C159.57,20.62,159.63,20.58,159.65,20.55z"/>
		<path class="st8" d="M165.23,19.83c-0.09,0.11-0.18,0.1-0.27-0.01C165.05,19.83,165.14,19.83,165.23,19.83z"/>
		<path class="st8" d="M201.36,5.23c-12.15,0.01-24.29,0.04-36.44-0.01c-1.21-0.01-2.34,0.62-3.55,0.3c0-0.08,0.02-0.15,0.06-0.22
			c0.1-0.08,0.21-0.16,0.31-0.23c1.19-0.18,2.38-0.37,3.57-0.55c11.1,0,22.21,0.01,33.31,0.01c0.59,0,1.18,0.03,1.77,0.04
			C200.66,4.86,201.21,4.75,201.36,5.23z"/>
		<path class="st7" d="M184.14,26.26c0.02-2.79,0.02-2.78,2.85-2.58c0.77,0.05,1.48,0.21,1.72,1.05c0.21,0.73,0.17,1.42-0.57,1.92
			c-0.81,0.53-0.1,0.88,0.2,1.28c0.18,0.23,0.62,0.41,0.4,0.77c-0.23,0.37-0.67,0.16-1.01,0.1c-0.67-0.11-0.82-0.79-1.25-1.18
			c-0.22-0.2-0.36-0.58-0.76-0.45c-0.34,0.11-0.27,0.44-0.26,0.7c0.02,0.57-0.06,1.02-0.79,0.95c-0.71-0.07-0.49-0.65-0.52-1.05
			C184.11,27.27,184.14,26.76,184.14,26.26z M186.46,24.71c-0.51,0.01-0.98-0.05-1.03,0.63c-0.05,0.68,0.37,0.73,0.87,0.7
			c0.48-0.04,1.12,0.12,1.17-0.59C187.52,24.74,186.92,24.73,186.46,24.71z"/>
		<path class="st7" d="M175.31,22.57c0.64-0.65,1.46-0.63,2.28-0.63c7.35,0,14.71-0.02,22.06,0.02c1.45,0.01,2.89-0.14,4.32-0.29
			c0.07,0.04,0.15,0.07,0.23,0.1c-0.19,1.25-1.24,0.37-1.8,0.72c-4.37,0-8.74,0-13.12,0c-2.99,0-5.97-0.2-8.96,0.16
			c-1.5,0.18-3.06-0.33-4.52,0.48C175.63,23.23,175.4,22.84,175.31,22.57z"/>
		<path class="st8" d="M197.32,27.72c0.84-0.35,0.56-0.69-0.06-0.87c-0.42-0.12-0.91,0.02-1.35-0.05c-0.79-0.12-1.36-0.52-1.39-1.4
			c-0.03-0.89,0.42-1.5,1.3-1.62c0.71-0.1,1.44-0.07,2.17-0.09c0.31-0.01,0.68-0.1,0.78,0.33c0.08,0.37-0.22,0.56-0.48,0.75
			c-0.62-0.02-1.25-0.05-1.87-0.05c-0.29,0-0.54,0.09-0.57,0.43c-0.04,0.4,0.21,0.57,0.56,0.6c0.62,0.05,1.25,0.08,1.87,0.12
			c0.2,0.15,0.4,0.3,0.59,0.46c0.07,0.13,0.13,0.27,0.2,0.4c0.01,0.32,0.03,0.65,0.04,0.97c-0.08,0.18-0.15,0.37-0.23,0.55
			c-0.87,0.88-2.02,0.47-3.04,0.64c-0.18,0-0.35,0-0.53,0c-0.19-0.04-0.37-0.08-0.56-0.11c-0.06-0.19-0.12-0.37-0.18-0.56
			c0.17-0.27,0.45-0.36,0.75-0.38C195.99,27.91,196.67,28.04,197.32,27.72z"/>
		<path class="st8" d="M168.44,27.68c0-0.18,0-0.37,0.01-0.55c0-0.36,0-0.72,0-1.08c0-0.19,0-0.37,0-0.56
			c0.03-0.54,0.05-1.08,0.08-1.62c1.31-0.05,2.61-0.11,3.92-0.16c0.23,0.55,0.27,0.99-0.54,0.98c-0.59-0.01-1.18,0.03-1.77,0.06
			c-0.31,0.02-0.49,0.18-0.49,0.52c0,0.35,0.2,0.47,0.51,0.48c0.55,0.01,1.09,0.02,1.64,0.05c0.29,0.02,0.7-0.08,0.7,0.41
			c-0.01,0.46-0.29,0.62-0.73,0.58c-0.27-0.02-0.55-0.05-0.82,0c-0.46,0.09-1.27-0.37-1.26,0.54c0.01,0.9,0.82,0.44,1.28,0.54
			c0.3,0.07,0.64,0.05,0.95,0.02c0.7-0.07,0.69,0.41,0.71,0.87c-0.73,0.03-1.46,0.07-2.19,0.1c-0.09,0-0.18,0-0.27-0.01
			c-0.18,0-0.37,0-0.55,0c-0.18,0-0.36,0-0.54,0c-0.35-0.08-0.56-0.3-0.63-0.65C168.44,28.04,168.44,27.86,168.44,27.68z"/>
		<path class="st5" d="M172.62,28.77c-0.02-0.47-0.01-0.94-0.71-0.87c-0.31,0.03-0.65,0.05-0.95-0.02c-0.46-0.1-1.27,0.36-1.28-0.54
			c-0.01-0.91,0.8-0.45,1.26-0.54c0.26-0.05,0.55-0.02,0.82,0c0.44,0.03,0.72-0.12,0.73-0.58c0.01-0.5-0.4-0.4-0.7-0.41
			c-0.54-0.03-1.09-0.04-1.64-0.05c-0.32-0.01-0.51-0.13-0.51-0.48c0-0.34,0.18-0.5,0.49-0.52c0.59-0.03,1.18-0.07,1.77-0.06
			c0.82,0.01,0.77-0.43,0.54-0.98c0.28-0.01,0.56-0.01,0.85-0.02c0.02,1.02,0.91,1.46,1.45,2.13c0.03,0.26,0.06,0.52,0.08,0.78
			c-0.65,0.67-1.33,1.32-1.66,2.23C172.95,29.04,172.77,29.03,172.62,28.77z"/>
		<path class="st7" d="M174.73,25.81c-0.54-0.67-1.43-1.1-1.45-2.13c0.2-0.01,0.4-0.02,0.6-0.04c0.21,0.05,0.43,0.09,0.64,0.14
			c0.27,0.3,0.54,0.6,0.81,0.89c0.03,0.18-0.01,0.42,0.31,0.32c0.29,0.05,0.44-0.1,0.52-0.35c0.18-0.11,0.34-0.24,0.33-0.48
			c0,0-0.01,0-0.01,0c0.08-0.1,0.17-0.2,0.25-0.3c0.41-0.07,0.83-0.14,1.24-0.21c0.11,0.07,0.22,0.15,0.33,0.22
			c-0.4,0.9-1.56,1.4-1.57,2.4c-0.01,0.96,1.18,1.41,1.53,2.35c-0.65,0.34-1.21,0.29-1.75-0.16c-0.12-0.17-0.24-0.34-0.36-0.52
			c-0.09-0.1-0.17-0.21-0.26-0.31c-0.72-0.44-0.67,0.23-0.85,0.58c-0.08,0.12-0.16,0.24-0.24,0.36c-0.08,0.07-0.17,0.13-0.25,0.2
			c-0.19,0.03-0.39,0.07-0.58,0.1c-0.09,0-0.18,0-0.27,0c-0.19-0.02-0.37-0.04-0.56-0.06c0.33-0.91,1.01-1.56,1.66-2.23
			c0.22,0,0.44,0.01,0.66,0c0.4-0.01,0.71-0.16,0.66-0.62c-0.06-0.48-0.43-0.5-0.8-0.42C175.12,25.59,174.93,25.71,174.73,25.81z"/>
		<path class="st7" d="M189.8,28.23c-0.22-1.29-0.21-2.57-0.04-3.86c0.46,0.16,0.18,0.79,0.74,1.04c-0.23-1.12,0.49-1.03,1.17-1.02
			c0.73,0.01,1.45-0.01,2.18-0.01c-0.53,0.77-1.32,0.26-1.98,0.39c-0.3,0.06-0.69-0.02-0.73,0.42c-0.04,0.53,0.38,0.52,0.75,0.53
			c0.45,0.01,0.91,0.01,1.36,0.01c0.38,0,0.61,0.18,0.61,0.57c0,0.41-0.29,0.53-0.64,0.53c-0.5,0.01-1,0.01-1.5,0.01
			c-0.29,0-0.56,0.07-0.6,0.4c-0.05,0.44,0.29,0.48,0.61,0.55c0.75,0.18,1.64-0.4,2.27,0.43c-0.03,0.18-0.06,0.35-0.1,0.53
			c-0.81,0.2-1.61,0.22-2.42,0.01c0.52-0.57,1.32,0.02,1.9-0.43c-1.02-0.54-3.02,0.97-2.93-1.65
			C189.85,27.18,190.35,27.9,189.8,28.23z"/>
		<path class="st8" d="M179.72,28.74c-0.18,0-0.37,0-0.55,0.01c-0.09-0.08-0.18-0.17-0.26-0.25c-0.03-1.31-0.06-2.62-0.08-3.93
			c0-0.18-0.02-0.38,0.06-0.53c0.16-0.33,3.33-0.41,3.81-0.11c0.74,0.46,0.82,1.87,0.16,2.69c-0.4,0.16-0.8,0.32-1.21,0.48
			c-0.75,0.07-1.7-0.14-1.64,1.12C179.91,28.39,179.81,28.57,179.72,28.74z M181.3,26.04c0.13-0.02,0.93,0.24,0.93-0.64
			c0-0.62-0.64-0.63-1.14-0.66c-0.53-0.03-0.99,0.01-1.04,0.7C180,26.12,180.4,26.17,181.3,26.04z"/>
		<path class="st7" d="M204.04,21.12c-0.09,0-0.18,0-0.27,0c0-3.95,0.01-7.91,0-11.86c0-0.43,0.15-0.93-0.31-1.26
			c-0.41-0.73-1.28-1.27-0.91-2.31c0.3,0.01,0.5,0.17,0.67,0.4c-0.02,0.33,0.15,0.53,0.45,0.65c0.02,0.07,0.05,0.12,0.09,0.18
			c0.05,0.12,0.1,0.25,0.15,0.37c0,0.08,0.02,0.14,0.06,0.21c0.05,0.36,0.11,0.71,0.16,1.07c0,1.63,0,3.25,0,4.88
			c0,0.2,0,0.39,0,0.59c0,0.35,0,0.7,0,1.06c-0.13,1.83-0.14,3.67,0,5.5C204.1,20.76,204.07,20.94,204.04,21.12z"/>
		<path class="st9" d="M202.99,30.01c-1.48,0.32-2.97,0.12-4.46,0.14c-3.35,0.03-6.69,0.02-10.04,0c-0.46,0-1,0.23-1.37-0.28
			c5.28-0.02,10.55-0.03,15.83-0.05C202.98,29.87,202.99,29.94,202.99,30.01z"/>
		<path class="st7" d="M167.18,22.74c-0.01-0.7,0.47-0.8,1-0.8c2.03-0.01,4.06,0,6.09,0c0.4,0,0.72,0.09,0.79,0.55
			c-2.25-0.01-4.5-0.03-6.75-0.04C167.91,22.44,167.5,22.42,167.18,22.74z"/>
		<path class="st1" d="M167.16,29.83c-0.38-0.03-0.55-0.25-0.55-0.62c0-1.84,0-3.67-0.01-5.51c0-0.36,0.13-0.61,0.52-0.65
			C167.14,25.31,167.15,27.57,167.16,29.83z"/>
		<path class="st3" d="M189.29,22.49c4.37,0,8.74,0,13.12,0c-0.28,0.3-0.65,0.26-1.01,0.26c-3.7,0-7.4,0-11.1,0
			C189.94,22.75,189.57,22.8,189.29,22.49z"/>
		<path class="st1" d="M189.8,28.23c0.56-0.33,0.06-1.05,0.64-1.56c-0.09,2.62,1.91,1.11,2.93,1.65c-0.58,0.44-1.37-0.14-1.9,0.43
			C190.88,28.68,190.1,29.22,189.8,28.23z"/>
		<path class="st5" d="M175.15,29.9c-2.59,0.34-5.17,0.4-7.75-0.03C169.99,29.88,172.57,29.89,175.15,29.9z"/>
		<path class="st7" d="M189.79,24.1c1.15-0.77,2.39-0.38,3.61-0.27C192.23,24.41,190.99,24,189.79,24.1z"/>
		<path class="st5" d="M186.81,29.43c-0.5,0.57-3.04,1.02-3.56,0.59c-0.42-0.34-0.24-0.81-0.15-1.24c0.44,1.2,2.15,1.56,3.17,0.63
			C186.51,29.18,186.65,29,186.81,29.43z"/>
		<path class="st1" d="M189.79,24.1c1.2-0.1,2.44,0.31,3.61-0.27c0.09,0.02,0.18,0.04,0.27,0.06c0.06,0.07,0.13,0.14,0.19,0.21
			c0,0.09-0.01,0.19-0.01,0.28c-0.73,0.01-1.45,0.02-2.18,0.01c-0.68-0.01-1.39-0.1-1.17,1.02c-0.55-0.25-0.28-0.88-0.74-1.04
			C189.77,24.28,189.78,24.19,189.79,24.1z"/>
		<path class="st9" d="M204.13,20.58c-0.14-1.83-0.13-3.67,0-5.5C204.43,16.92,204.43,18.75,204.13,20.58z"/>
		<path class="st5" d="M198.28,25.85c-0.62-0.04-1.25-0.07-1.87-0.12c-0.35-0.03-0.6-0.2-0.56-0.6c0.03-0.34,0.29-0.43,0.57-0.43
			c0.62,0.01,1.25,0.04,1.87,0.05c-0.59,0.43-1.38-0.03-2.07,0.41C196.83,25.85,197.81,25.09,198.28,25.85z"/>
		<path class="st9" d="M181.38,29.87c-1.64,0.59-3.32,0.26-4.99,0.15c-0.09-0.01-0.16-0.28-0.23-0.43
			C177.87,30.17,179.64,29.75,181.38,29.87z"/>
		<path class="st5" d="M198.88,28.23c0.08-0.18,0.15-0.37,0.23-0.55c1.1,0.01,2.2,0.01,3.3,0.02c-0.62,0.38-1.3,0.18-1.94,0.16
			c-0.71-0.01-0.83,0.34-0.78,0.91C199.39,28.62,199.28,28.2,198.88,28.23z"/>
		<path class="st9" d="M165.31,4.51c-1.19,0.18-2.38,0.37-3.57,0.55C162.8,4.07,164.08,4.46,165.31,4.51z"/>
		<path class="st9" d="M201.36,5.23c-0.15-0.48-0.7-0.37-0.97-0.66c0.77-0.03,1.56-0.14,2.02,0.7c-0.19,0.07-0.37,0.15-0.56,0.22
			C201.69,5.4,201.52,5.31,201.36,5.23z"/>
		<path class="st9" d="M182.98,28.45c-0.66,0.03-1.4-0.07-1.57,0.86c-0.34-0.29-0.37-0.65-0.01-0.88
			C181.91,28.12,182.46,28.03,182.98,28.45z"/>
		<path class="st5" d="M197.32,27.72c-0.65,0.32-1.33,0.19-2,0.09C195.98,27.52,196.65,27.67,197.32,27.72z"/>
		<path class="st5" d="M175.06,28.21c0.18-0.35,0.13-1.02,0.85-0.58C175.62,27.83,175.34,28.02,175.06,28.21z"/>
		<path class="st5" d="M168.52,23.86c-0.03,0.54-0.05,1.08-0.08,1.62C168.15,24.92,168.07,24.38,168.52,23.86z"/>
		<path class="st5" d="M193.9,28.74c0.03-0.18,0.06-0.35,0.1-0.53c0.19-0.01,0.39-0.01,0.58-0.02c0.06,0.19,0.12,0.38,0.18,0.56
			C194.47,28.62,194.18,28.62,193.9,28.74z"/>
		<path class="st5" d="M199.69,26.29c0.29,0.17,0.58,0.35,0.87,0.52C200.13,26.87,199.73,26.87,199.69,26.29z"/>
		<path class="st7" d="M181.64,27.1c0.4-0.16,0.8-0.32,1.21-0.48C182.63,27.26,182.11,27.13,181.64,27.1z"/>
		<path class="st7" d="M201.85,5.48c0.19-0.07,0.37-0.15,0.56-0.22c0.04,0.13,0.08,0.27,0.12,0.4
			C202.26,5.78,202.02,5.75,201.85,5.48z"/>
		<path class="st9" d="M204.13,8.56c-0.05-0.36-0.11-0.71-0.16-1.07C204.45,7.78,204.37,8.16,204.13,8.56z"/>
		<path class="st5" d="M168.44,26.04c0,0.36,0,0.72,0,1.08C168.16,26.76,168.16,26.4,168.44,26.04z"/>
		<path class="st5" d="M202.37,23.67c-0.34,0.12-0.67,0.14-1.01,0C201.69,23.51,202.03,23.51,202.37,23.67z"/>
		<path class="st9" d="M203.67,6.73c-0.29-0.12-0.47-0.31-0.45-0.65C203.6,6.14,203.77,6.34,203.67,6.73z"/>
		<path class="st5" d="M202.13,26.88c0.66,0.06,0.79,0.32,0.3,0.8C202.33,27.41,202.23,27.15,202.13,26.88z"/>
		<path class="st5" d="M168.44,27.68c0,0.18,0,0.36,0,0.54C168.22,28.04,168.23,27.86,168.44,27.68z"/>
		<path class="st9" d="M204.2,21.77c-0.08-0.03-0.15-0.07-0.23-0.1c0.05-0.19,0.1-0.38,0.15-0.57
			C204.33,21.3,204.32,21.53,204.2,21.77z"/>
		<path class="st5" d="M174.52,23.78c-0.21-0.05-0.43-0.09-0.64-0.14C174.11,23.57,174.34,23.57,174.52,23.78z"/>
		<path class="st5" d="M176.17,27.95c0.12,0.17,0.24,0.34,0.36,0.52C176.25,28.39,176.16,28.2,176.17,27.95z"/>
		<path class="st7" d="M179.72,28.74c0.09-0.17,0.19-0.35,0.28-0.52C180.09,28.49,180.06,28.7,179.72,28.74z"/>
		<path class="st5" d="M176.49,24.16c0.01,0.24-0.15,0.37-0.33,0.48C176.16,24.41,176.24,24.23,176.49,24.16z"/>
		<path class="st9" d="M204.13,14.03c0-0.2,0-0.39,0-0.59C204.33,13.64,204.33,13.83,204.13,14.03z"/>
		<path class="st5" d="M175.64,25c-0.32,0.1-0.28-0.14-0.31-0.32C175.43,24.78,175.54,24.89,175.64,25z"/>
		<path class="st9" d="M176.16,29.59c-0.18-0.05-0.36-0.1-0.55-0.15C175.87,29.21,176.05,29.27,176.16,29.59z"/>
		<path class="st5" d="M169.06,28.86c0.18,0,0.36,0,0.54,0C169.42,29.06,169.24,29.06,169.06,28.86z"/>
		<path class="st5" d="M195.31,28.87c0.18,0,0.35,0,0.53,0C195.66,29.06,195.49,29.06,195.31,28.87z"/>
		<path class="st5" d="M173.71,28.87c0.09,0,0.18,0,0.27,0C173.89,28.87,173.8,28.87,173.71,28.87z"/>
		<path class="st5" d="M170.15,28.86c0.09,0,0.18,0,0.27,0.01C170.33,28.86,170.24,28.86,170.15,28.86z"/>
		<path class="st7" d="M178.9,28.5c0.09,0.08,0.18,0.17,0.26,0.25C178.99,28.76,178.89,28.69,178.9,28.5z"/>
		<path class="st5" d="M174.56,28.77c0.08-0.07,0.17-0.13,0.25-0.2C174.73,28.64,174.65,28.71,174.56,28.77z"/>
		<path class="st9" d="M161.74,5.07c-0.1,0.08-0.21,0.16-0.31,0.23C161.53,5.22,161.63,5.14,161.74,5.07z"/>
		<path class="st9" d="M175.47,29.58c0.06,0.14,0,0.21-0.14,0.24C175.38,29.74,175.43,29.66,175.47,29.58z"/>
		<path class="st5" d="M199.47,25.89c0.07,0.14,0.15,0.27,0.22,0.41C199.62,26.16,199.55,26.02,199.47,25.89z"/>
		<path class="st7" d="M193.85,24.1c-0.06-0.07-0.13-0.14-0.19-0.21C193.85,23.85,193.89,23.94,193.85,24.1z"/>
		<path class="st5" d="M176.73,23.85c-0.08,0.1-0.17,0.2-0.25,0.3C176.56,24.06,176.65,23.96,176.73,23.85z"/>
		<path class="st5" d="M178.31,23.87c-0.11-0.07-0.22-0.15-0.33-0.22C178.09,23.72,178.2,23.79,178.31,23.87z"/>
		<path class="st5" d="M199.07,26.7c-0.07-0.13-0.13-0.27-0.2-0.4C198.94,26.44,199,26.57,199.07,26.7z"/>
		<path class="st9" d="M203.91,7.28c-0.05-0.12-0.1-0.25-0.15-0.37C203.9,6.99,203.96,7.11,203.91,7.28z"/>
		<path class="st5" d="M201.31,26.86c0.09,0.01,0.18,0.01,0.27,0.02C201.49,27,201.4,27,201.31,26.86z"/>
		<path class="st8" d="M160.79,34.29c0.36-0.07,0.81-0.18,1.05,0.08c1.13,1.2,2.57,0.95,3.97,0.95c10.93,0,21.86-0.02,32.78,0.02
			c1.23,0,2.42-0.47,3.66-0.25c-0.79,0.64-1.73,0.75-2.7,0.75c-11.84,0-23.68,0-35.53,0C162.7,35.85,161.55,35.47,160.79,34.29z"/>
		<path class="st5" d="M201.04,25.5c0.72,0.1,1.51-0.28,2.17,0.3C202.49,25.67,201.71,25.99,201.04,25.5z"/>
		<path class="st5" d="M201.06,24.97c-0.01,0.17-0.02,0.35-0.03,0.52C200.71,25.3,200.72,25.12,201.06,24.97z"/>
		<path class="st6" d="M10.85,18.62c0-0.82,0.19-1.2,0.87-1.15c0.57,0.04,0.81,0.31,0.75,0.87c-0.07,0.7-0.54,0.86-1.14,0.88
			C10.62,19.23,10.85,18.74,10.85,18.62z"/>
		<path class="st6" d="M28.83,17.43c0.59-0.01,0.86,0.22,0.87,0.82c0.01,0.76-0.45,0.89-1.05,0.94c-0.48,0.04-0.7-0.17-0.6-0.64
			C28.15,18.06,27.99,17.36,28.83,17.43z"/>
		<path class="st6" d="M35.09,20.43c-0.11,0.83-0.63,1.2-1.37,1.2c-0.46,0-0.91-0.24-0.86-0.82c0.06-0.73,0.39-1.31,1.22-1.35
			C34.74,19.43,35.05,19.81,35.09,20.43z"/>
		<path class="st6" d="M16.9,19.48c0.67-0.06,0.89,0.33,0.88,0.9c-0.02,0.81-0.45,1.24-1.27,1.23c-0.58-0.01-0.97-0.31-0.93-0.9
			C15.63,19.93,16.12,19.52,16.9,19.48z"/>
		<path class="st8" d="M86.25,21.82c0.32-0.91,0.62-1.79,1.04-2.99c0.3,1.19,0.86,2.06,0.44,2.95
			C87.53,22.21,86.83,21.95,86.25,21.82z"/>
		<path class="st4" d="M79,25.26c-0.99-0.01-1.63-0.03-2.23-0.29c-0.77-0.35-0.45-1.01-0.35-1.55c0.12-0.65,0.58-0.37,0.96-0.24
			c0.66,0.23,1.35,0.14,2.03,0.14c0.42,0,0.68-0.21,0.82-0.58c0.16-0.43-0.1-0.71-0.4-0.91c-0.46-0.3-0.97-0.51-1.42-0.8
			c-1.7-1.11-1.65-3.15,0.06-4.23c1.15-0.73,2.39-0.75,3.68-0.58c0.65,0.08,0.98,0.35,0.85,1.08c-0.12,0.63-0.31,1.06-1.06,0.78
			c-0.12-0.05-0.27-0.04-0.41-0.02c-0.64,0.08-1.55-0.32-1.82,0.5c-0.3,0.91,0.73,1.01,1.25,1.32c1.06,0.65,1.95,1.35,1.77,2.77
			C82.54,24,81.55,24.61,80.39,25C79.84,25.18,79.24,25.22,79,25.26z"/>
		<path class="st14" d="M129.42,27.06c-4.57-3.31-4.73-10.23,0-13.56c0.68,0.94,1.45,1.81,2.07,2.82c1.16,1.9,1.23,5.41,0.26,7.35
			C131.11,24.94,130.24,25.96,129.42,27.06z"/>
		<path class="st1" d="M203.46,8c0.45,0.33,0.31,0.82,0.31,1.26c0.01,3.95,0,7.91,0,11.86c-0.43-0.46-0.25-1.04-0.25-1.56
			C203.48,15.7,203.47,11.85,203.46,8z"/>
		<path class="st5" d="M180.94,15.61c-0.59,0.05-1.02,0-0.99-0.65c0.03-0.64,0.46-0.69,0.94-0.63c0.47,0.05,1.1-0.02,1.07,0.7
			C181.94,15.78,181.28,15.55,180.94,15.61z"/>
		<path class="st9" d="M192.31,14.62c0.03,0.64,1.15,1.03,0.42,1.73c-0.22,0.21-0.82,0.24-0.99-0.02
			C191.29,15.65,191.9,15.16,192.31,14.62z"/>
		<path class="st5" d="M163.45,15.92c-0.26,0.78-0.93,0.37-1.41,0.5c-0.13-0.73,0.07-1.32,0.78-1.83
			C163.05,15.06,163.25,15.49,163.45,15.92z"/>
		<path class="st13" d="M184.67,17.61c-0.37-1.21-0.32-2.43-0.06-3.66C185.08,15.15,184.85,16.38,184.67,17.61z"/>
		<path class="st5" d="M186.46,24.71c0.46,0.03,1.06,0.03,1.01,0.73c-0.05,0.72-0.7,0.56-1.17,0.59c-0.5,0.04-0.92-0.01-0.87-0.7
			C185.48,24.65,185.96,24.71,186.46,24.71z"/>
		<path class="st13" d="M174.73,25.81c0.2-0.09,0.39-0.22,0.6-0.26c0.37-0.08,0.74-0.06,0.8,0.42c0.05,0.46-0.25,0.61-0.66,0.62
			c-0.22,0-0.44,0-0.66,0C174.78,26.32,174.76,26.06,174.73,25.81z"/>
		<path class="st5" d="M181.3,26.04c-0.9,0.13-1.3,0.08-1.25-0.59c0.05-0.7,0.52-0.73,1.04-0.7c0.5,0.03,1.13,0.04,1.14,0.66
			C182.23,26.28,181.43,26.02,181.3,26.04z"/>
	</g>
</g>
</svg>
