<svg xmlns="http://www.w3.org/2000/svg" xmlns:xlink="http://www.w3.org/1999/xlink" viewBox="0 0 115.62 123.52"><defs><style>.cls-1{fill:url(#linear-gradient);}.cls-2{fill:url(#linear-gradient-2);}.cls-3{opacity:0.22;}.cls-4{fill:#f72140;}.cls-5{fill:url(#linear-gradient-3);}.cls-6{opacity:0.45;}.cls-7{opacity:0.36;}.cls-8{fill:#fff;}.cls-9{fill:#ff6700;}.cls-10{fill:none;stroke:#fff;stroke-linecap:round;stroke-linejoin:round;stroke-width:7.04px;}</style><linearGradient id="linear-gradient" y1="82.37" x2="71.23" y2="82.37" gradientUnits="userSpaceOnUse"><stop offset="0.35" stop-color="#c00"/><stop offset="0.43" stop-color="#d10000"/><stop offset="0.75" stop-color="#e00000"/><stop offset="1" stop-color="#e60000"/></linearGradient><linearGradient id="linear-gradient-2" x1="100.73" y1="121.01" x2="62.72" y2="47.29" xlink:href="#linear-gradient"/><linearGradient id="linear-gradient-3" x1="58.3" y1="9.03" x2="58.3" y2="98.6" gradientUnits="userSpaceOnUse"><stop offset="0.01" stop-color="#ffec00"/><stop offset="1" stop-color="#ffb300"/></linearGradient></defs><title>Asset 1</title><g id="Layer_2" data-name="Layer 2"><g id="Layer_1-2" data-name="Layer 1"><path class="cls-1" d="M37.88,41.22.36,101.51a2.32,2.32,0,0,0,2.1,3.55l17-1a2.32,2.32,0,0,1,2.23,1.33l7.83,16.75a2.33,2.33,0,0,0,4.08.24L71.23,62Z"/><path class="cls-2" d="M78.84,41.9l36.3,58.31a3.12,3.12,0,0,1-2.82,4.76l-14.93-.83a3.12,3.12,0,0,0-3,1.79l-7,14.93a3.11,3.11,0,0,1-5.47.32L45.5,62.66a.79.79,0,0,1,.25-1.1l32-19.91A.78.78,0,0,1,78.84,41.9Z"/><g class="cls-3"><path d="M8.77,88S6.6,90.11,15.4,92.31s11,2.2,13.2,4.4,6.6,11,8.8,13.2,3.2,1.27,3.2,1.27l5.34-9S30.8,81.31,28.6,81.31s-15.68-.75-15.68-.75Z"/><path d="M71.23,104l5.57,9s2.4-.83,6.8-9.63,4.4-8.8,11-8.8,13-6.45,13-6.45l-5.15-8.27L77,85.71,67.92,99Z"/></g><path class="cls-4" d="M113.9,53.09c0,5.56-8.72,9.67-10.35,14.69-1.69,5.2,2.89,13.64-.25,18s-12.65,2.6-17,5.78-5.56,12.72-10.76,14.41c-5,1.62-11.61-5.34-17.17-5.34s-12.15,7-17.17,5.34C36,104.25,34.76,94.68,30.43,91.53s-13.84-1.41-17-5.78,1.44-12.78-.25-18c-1.63-5-10.36-9.13-10.36-14.69s8.73-9.67,10.36-14.68c1.69-5.2-2.9-13.65.25-18s12.65-2.61,17-5.79S36,1.93,41.18.25c5-1.63,11.62,5.33,17.17,5.33s12.16-7,17.17-5.33C80.72,1.93,82,11.5,86.28,14.65s13.84,1.42,17,5.79-1.44,12.77.25,18C105.18,43.42,113.9,47.53,113.9,53.09Z"/><circle class="cls-5" cx="58.3" cy="53.81" r="44.78"/><g class="cls-6"><g class="cls-7"><path class="cls-8" d="M30,19.11A44.6,44.6,0,0,0,14,47.77c0,.51-.06,1-.08,1.54a44.74,44.74,0,0,1,88.82,9c.08-.51.16-1,.23-1.53A44.74,44.74,0,0,0,30,19.11Z"/></g><path class="cls-9" d="M86.92,85.44a44.74,44.74,0,0,1-73-36.13c-.09.51-.16,1-.23,1.53a44.73,44.73,0,0,0,89,9c0-.52.07-1,.09-1.55A44.57,44.57,0,0,1,86.92,85.44Z"/></g><polyline class="cls-10" points="39.5 52.34 49.56 64.91 81.73 41.28"/></g></g></svg>