<svg xmlns="http://www.w3.org/2000/svg" viewBox="0 0 34.17 34.1"><defs><style>.cls-1{fill:#fff;}</style></defs><title>edit</title><g id="Layer_2" data-name="Layer 2"><g id="Layer_1-2" data-name="Layer 1"><g id="pMeVRq.tif"><path d="M0,6.27C0,6.19.05,6.11.08,6A1.23,1.23,0,0,1,1.2,5.2H14.36a1.22,1.22,0,0,1,.2,2.44,2.61,2.61,0,0,1-.28,0H2.46v24h24v-.23c0-3.9,0-7.79,0-11.69a1.2,1.2,0,0,1,.68-1.16,1.22,1.22,0,0,1,1.77,1v13c0,.91-.17,1.18-1,1.53H1a5.12,5.12,0,0,1-.57-.3A1.3,1.3,0,0,1,0,33Z"/><path class="cls-1" d="M0,33a1.3,1.3,0,0,0,.43.77,5.12,5.12,0,0,0,.57.3H0Z"/><path d="M8.31,24.59a4.28,4.28,0,0,1,.15-.51q1.39-3.27,2.8-6.53a1.7,1.7,0,0,1,.34-.5L28.23.41A1.21,1.21,0,0,1,30,.4c1.24,1.24,2.48,2.47,3.71,3.71a1.21,1.21,0,0,1,0,1.85l-7.42,7.41-9.11,9.12a2.06,2.06,0,0,1-.69.47L10.11,25.7A1.26,1.26,0,0,1,8.31,24.59ZM25.82,6.32,13.89,18.26l2,2L27.85,8.35ZM27,5.12l2,2L31.17,5l-2-2ZM11.88,22.29l2.55-1.1L13,19.75Z"/></g></g></g></svg>