<svg xmlns="http://www.w3.org/2000/svg" viewBox="0 0 59.06 59.06"><defs><style>.cls-1{fill:#ffe000;}.cls-2{fill:#fcf0ac;}.cls-3{fill:#e2991a;opacity:0.54;}.cls-4{fill:#ffb000;}</style></defs><title>Asset 4</title><g id="Layer_2" data-name="Layer 2"><g id="Layer_1-2" data-name="Layer 1"><circle class="cls-1" cx="29.53" cy="29.53" r="29.53"/><path class="cls-1" d="M51.09,9.4Q50.4,8.66,49.65,8c.24.25.47.5.69.76S50.85,9.17,51.09,9.4Z"/><path class="cls-1" d="M8,49.65q.7.75,1.44,1.44c-.23-.24-.46-.49-.68-.75S8.21,49.89,8,49.65Z"/><path class="cls-2" d="M12,5.79A29.37,29.37,0,0,0,.3,25.54c0,.34,0,.68,0,1A29.5,29.5,0,0,1,58.81,32.5c.06-.34.11-.68.15-1A29.49,29.49,0,0,0,12,5.79Z"/><path class="cls-3" d="M46.9,51.53a29.5,29.5,0,0,1-46.65-25c-.06.34-.11.67-.15,1a29.5,29.5,0,0,0,58.66,5.94c0-.34,0-.67.05-1A29.37,29.37,0,0,1,46.9,51.53Z"/><path class="cls-4" d="M33,36.83h6.06v6H20.47v-6h6.07V21a15.22,15.22,0,0,1-5.13.9h-.94V16h.71a9,9,0,0,0,3-.47,5.78,5.78,0,0,0,2.5-1.62l.22-.24H33Z"/></g></g></svg>