<svg xmlns="http://www.w3.org/2000/svg" viewBox="0 0 59.06 59.06"><defs><style>.cls-1{fill:#ffe000;}.cls-2{fill:#fcf0ac;}.cls-3{fill:#e2991a;opacity:0.54;}.cls-4{fill:#ffb000;}</style></defs><title>level</title><g id="Layer_2" data-name="Layer 2"><g id="Layer_1-2" data-name="Layer 1"><circle class="cls-1" cx="29.53" cy="29.53" r="29.53"/><path class="cls-1" d="M51.09,9.4Q50.4,8.66,49.65,8c.24.25.47.5.69.76S50.85,9.17,51.09,9.4Z"/><path class="cls-1" d="M8,49.65q.7.75,1.44,1.44c-.23-.24-.46-.49-.68-.75S8.21,49.89,8,49.65Z"/><path class="cls-2" d="M12,5.79A29.37,29.37,0,0,0,.3,25.54c0,.34,0,.68,0,1A29.5,29.5,0,0,1,58.81,32.5c.06-.34.11-.68.15-1A29.49,29.49,0,0,0,12,5.79Z"/><path class="cls-3" d="M46.9,51.53a29.5,29.5,0,0,1-46.65-25c-.06.34-.11.67-.15,1a29.5,29.5,0,0,0,58.66,5.94c0-.34,0-.67.05-1A29.37,29.37,0,0,1,46.9,51.53Z"/><path class="cls-4" d="M15.63,16.82H43a0,0,0,0,1,0,0v9A13.68,13.68,0,0,1,29.31,39.53h0A13.68,13.68,0,0,1,15.63,25.85v-9A0,0,0,0,1,15.63,16.82Z"/><path class="cls-1" d="M29.35,20.54l2,4.15a.31.31,0,0,0,.22.16l4.57.66a.3.3,0,0,1,.17.51l-3.31,3.22a.33.33,0,0,0-.09.27l.78,4.55a.29.29,0,0,1-.43.31l-4.09-2.15a.32.32,0,0,0-.27,0l-4.09,2.15a.29.29,0,0,1-.43-.31l.78-4.55a.3.3,0,0,0-.09-.27L21.82,26a.3.3,0,0,1,.16-.51l4.57-.66a.35.35,0,0,0,.23-.16l2-4.15A.3.3,0,0,1,29.35,20.54Z"/><path class="cls-4" d="M16.68,19l1.14,9.83H16.64a5.22,5.22,0,0,1-4.16-1.68c-1.81-2-2.2-5.68-2.18-8.14h6.38m2-2.19H8.24S6.43,31,16.64,31l3.64,0L18.64,16.82Z"/><path class="cls-4" d="M49.56,19c0,2.46-.38,6.1-2.18,8.14a5.23,5.23,0,0,1-4.18,1.68H42L43.17,19h6.39m2.06-2.19H41.22L39.58,31.05l3.64,0c10.2,0,8.4-14.2,8.4-14.2Z"/><rect class="cls-4" x="27.12" y="37.62" width="4.1" height="5.6"/><path class="cls-4" d="M22.11,43.22H37.05a2.65,2.65,0,0,1,2.65,2.65v2a0,0,0,0,1,0,0H19.46a0,0,0,0,1,0,0v-2a2.65,2.65,0,0,1,2.65-2.65Z"/><rect class="cls-4" x="17.81" y="47.87" width="23.8" height="1.64"/></g></g></svg>