<svg xmlns="http://www.w3.org/2000/svg" xmlns:xlink="http://www.w3.org/1999/xlink" viewBox="0 0 650 69.31"><defs><style>.cls-1{fill:#ffb000;}.cls-2{fill:#f28a00;}.cls-3{fill:url(#linear-gradient);}</style><linearGradient id="linear-gradient" x1="1289.93" y1="1414.39" x2="1289.93" y2="1476.97" gradientTransform="translate(1615.42 1480.32) rotate(180)" gradientUnits="userSpaceOnUse"><stop offset="0.35" stop-color="#ffe000"/><stop offset="0.63" stop-color="#ffd200"/><stop offset="0.87" stop-color="#fc0"/></linearGradient></defs><title>RemRebb</title><g id="Layer_2" data-name="Layer 2"><g id="Layer_1-2" data-name="Layer 1"><path class="cls-1" d="M595.76,41.59h52a2.26,2.26,0,0,0,1.59-3.86L634,22.35a2.25,2.25,0,0,1,0-3.15L648.57,3.82A2.26,2.26,0,0,0,646.93,0H595.76V41.59"/><polygon class="cls-2" points="615.56 13.86 595.76 0 595.76 13.86 615.56 13.86"/><path class="cls-1" d="M54.24,41.59h-52A2.26,2.26,0,0,1,.67,37.73L16.05,22.35a2.25,2.25,0,0,0,0-3.15L1.43,3.82A2.26,2.26,0,0,1,3.07,0H54.24V41.59"/><polygon class="cls-2" points="34.44 13.86 54.24 0 54.24 13.86 34.44 13.86"/><rect class="cls-3" x="26.51" y="13.86" width="597.96" height="55.45" rx="8.62"/></g></g></svg>