<svg xmlns="http://www.w3.org/2000/svg" viewBox="0 0 59.06 59.06"><defs><style>.cls-1{fill:#ffe000;}.cls-2{fill:#fcf0ac;}.cls-3{fill:#e2991a;}.cls-3,.cls-6{opacity:0.54;}.cls-4{fill:#ffb000;}.cls-5{opacity:0.19;}.cls-7{fill:#dd700e;}</style></defs><title>Asset 5</title><g id="Layer_2" data-name="Layer 2"><g id="Layer_1-2" data-name="Layer 1"><circle class="cls-1" cx="29.53" cy="29.53" r="29.53"/><path class="cls-1" d="M51.09,9.4Q50.4,8.66,49.65,8c.24.25.47.5.69.76S50.85,9.17,51.09,9.4Z"/><path class="cls-1" d="M8,49.65q.7.75,1.44,1.44c-.23-.24-.46-.49-.68-.75S8.21,49.89,8,49.65Z"/><path class="cls-2" d="M12,5.79A29.37,29.37,0,0,0,.3,25.54c0,.34,0,.68,0,1A29.5,29.5,0,0,1,58.81,32.5c.06-.34.11-.68.15-1A29.49,29.49,0,0,0,12,5.79Z"/><path class="cls-3" d="M46.9,51.53a29.5,29.5,0,0,1-46.65-25c-.06.34-.11.67-.15,1a29.5,29.5,0,0,0,58.66,5.94c0-.34,0-.67.05-1A29.37,29.37,0,0,1,46.9,51.53Z"/><path class="cls-4" d="M31.24,10.12l5.42,11a.78.78,0,0,0,.59.43L49.37,23.3a.79.79,0,0,1,.44,1.35L41,33.19a.8.8,0,0,0-.23.7L42.88,46a.79.79,0,0,1-1.14.84L30.9,41.1a.81.81,0,0,0-.74,0L19.32,46.8A.79.79,0,0,1,18.18,46l2.07-12.07a.8.8,0,0,0-.23-.7l-8.77-8.54a.79.79,0,0,1,.44-1.35l12.12-1.76a.8.8,0,0,0,.59-.43l5.42-11A.8.8,0,0,1,31.24,10.12Z"/><g class="cls-5"><g class="cls-6"><path class="cls-7" d="M49.86,23.61a.75.75,0,0,0-.49-.31L37.25,21.54a.78.78,0,0,1-.59-.43l-5.42-11a.77.77,0,0,0-.58-.4l4.83,12a2.16,2.16,0,0,0,1.92,1.35Z"/><path class="cls-7" d="M31,41.05l.17.18,10.6,5.57A.79.79,0,0,0,42.88,46L41.05,35.29v7a1.25,1.25,0,0,1-1.6,1.21Z"/></g><g class="cls-6"><path class="cls-7" d="M11.36,23.61a.75.75,0,0,1,.49-.31L24,21.54a.8.8,0,0,0,.59-.43l5.42-11a.77.77,0,0,1,.58-.4l-4.82,12a2.18,2.18,0,0,1-2,1.39Z"/><path class="cls-7" d="M30.25,41.05l-.17.18L19.48,46.8A.79.79,0,0,1,18.34,46l1.83-10.67v8.2a.33.33,0,0,0,.42.32Z"/></g></g></g></g></svg>